<?xml version="1.0" encoding="utf-8"?>
<!-- Generator: Adobe Illustrator 18.1.0, SVG Export Plug-In . SVG Version: 6.00 Build 0)  -->
<!DOCTYPE svg PUBLIC "-//W3C//DTD SVG 1.1//EN" "http://www.w3.org/Graphics/SVG/1.1/DTD/svg11.dtd">
<svg version="1.1" id="Layer_1" xmlns="http://www.w3.org/2000/svg" xmlns:xlink="http://www.w3.org/1999/xlink" x="0px" y="0px"
	 width="23.8px" height="24px" viewBox="1.7 -5.6 23.8 24" enable-background="new 1.7 -5.6 23.8 24" xml:space="preserve">
<g id="Icons">
</g>
<g>
	<path display="none" fill="#0173B2" d="M32.5,16.3c0,5.2-4.3,9.5-9.5,9.5H4.1c-5.2,0-9.5-4.3-9.5-9.5v-19c0-5.2,4.3-9.5,9.5-9.5h19
		c5.2,0,9.5,4.3,9.5,9.5v19H32.5z"/>
	<g>
		<rect x="2" y="2.8" fill="#00B1F0" width="4.9" height="15.9"/>
		<circle fill="#00B1F0" cx="4.6" cy="-2.3" r="2.9"/>
		<path fill="#00B1F0" d="M25.5,10c0-4.3-1-7.6-5.9-7.6c-2.4,0-4,1.3-4.6,2.5l0,0V2.7h-4.8v15.9h4.9v-7.8c0-2.1,0.3-4.1,3-4.1
			c2.5,0,2.5,2.4,2.5,4.1v7.8h4.9V10H25.5z"/>
	</g>
</g>
</svg>
