<?xml version="1.0" encoding="utf-8"?>
<!-- Generator: Adobe Illustrator 18.1.1, SVG Export Plug-In . SVG Version: 6.00 Build 0)  -->
<!DOCTYPE svg PUBLIC "-//W3C//DTD SVG 1.1//EN" "http://www.w3.org/Graphics/SVG/1.1/DTD/svg11.dtd">
<svg version="1.1" xmlns="http://www.w3.org/2000/svg" xmlns:xlink="http://www.w3.org/1999/xlink" x="0px" y="0px"
	 viewBox="0 0 100 100" enable-background="new 0 0 100 100" xml:space="preserve">
<g id="Layer_2">
	<path fill="#28AEE5" stroke="#28AEE5" stroke-miterlimit="10" d="M48.1,72.6c-4.3,0-8.6,0.1-12.9,0c-10.4-0.4-19.3-9.5-20.1-19.9
		C14.3,41,22.4,31.1,33.1,29.4c2.1-0.3,4.2-0.1,6.4-0.2c0.6,0,1.4-0.2,1.8-0.6c7.6-7,16.5-9.1,26.2-5.9C77.1,25.9,82.8,33,84.6,43
		c2.6,15-8.9,29-24.1,29.5C56.3,72.7,52.2,72.6,48.1,72.6C48.1,72.6,48.1,72.6,48.1,72.6z M46.1,30.9c1.1,0.6,2.1,1.2,3,1.8
		c0.8,0.6,1.3,0.6,2.3,0.1c10.7-5.9,23.9,1.7,24.1,13.8c0.1,6.6-3.8,12.7-9.8,15.2c-6.2,2.6-13.1,1.3-18-3.5
		c-3.1-3.1-6.3-6.3-9.4-9.4c-1.2-1.2-2.5-1.3-3.5-0.3c-1,1-0.9,2.3,0.2,3.5c3.2,3.2,6.3,6.4,9.5,9.5c4.7,4.5,10.2,6.5,16.8,6
		C73,66.7,82,54.9,79.6,43.3c-1.9-9.7-9.4-16.4-19.3-17.1C55.1,25.9,50.3,27.5,46.1,30.9z M43.6,68c0-0.1,0-0.3,0.1-0.4
		c-1-0.9-2-1.7-2.9-2.7c-1.1-1.3-2.4-2-4.2-1.8c-0.6,0.1-1.3,0-1.9-0.1c-5.3-1-9.3-5.1-10-10.2c-0.8-5.4,1.9-10.6,6.7-13
		c4.8-2.4,10.4-1.4,14.3,2.4c2.1,2.1,4.2,4.2,6.3,6.3c1.4,1.4,2.6,1.5,3.7,0.4c1-1,0.9-2.3-0.4-3.6c-2.2-2.2-4.3-4.4-6.5-6.5
		c-3.8-3.7-8.4-5.4-13.7-4.8c-8,0.9-14.5,7.4-15,15.1c-0.6,8.7,4.4,16.2,12.6,18C36.2,67.9,40,67.7,43.6,68z"/>
</g>
<g id="Layer_1">
	<circle fill="none" stroke="#28AEE5" stroke-width="4" stroke-miterlimit="10" cx="50" cy="50" r="47.5"/>
</g>
</svg>
