<?xml version="1.0" encoding="utf-8"?>
<!-- Generator: Adobe Illustrator 18.1.0, SVG Export Plug-In . SVG Version: 6.00 Build 0)  -->
<!DOCTYPE svg PUBLIC "-//W3C//DTD SVG 1.1//EN" "http://www.w3.org/Graphics/SVG/1.1/DTD/svg11.dtd">
<svg version="1.1" id="Layer_1" xmlns="http://www.w3.org/2000/svg" xmlns:xlink="http://www.w3.org/1999/xlink" x="0px" y="0px"
	 width="28.8px" height="24px" viewBox="-2.6 0 28.8 24" enable-background="new -2.6 0 28.8 24" xml:space="preserve">
<g id="Layer_2">
	<g>
		<g display="none">
			<path display="inline" fill="#28AEE5" d="M-9.2,4.7c0-2.7,1.9-5.8,4.2-7.3L7.8-9.7c2.3-1.3,6.1-1.3,8.6,0l12.7,7.3
				c2.3,1.3,4.2,4.5,4.2,7.3v14.4c0,2.7-1.9,5.8-4.2,7.3l-12.7,7.3c-2.3,1.3-6.1,1.3-8.6,0l-12.7-7.3c-2.3-1.3-4.2-4.5-4.2-7.3
				L-9.2,4.7L-9.2,4.7z"/>
			<path display="inline" fill="#28AEE5" d="M-9.2,4.7c0-2.7,1.9-5.8,4.2-7.3L7.8-9.7c2.3-1.3,6.1-1.3,8.6,0l12.7,7.3
				c2.3,1.3,4.2,4.5,4.2,7.3v14.4c0,2.7-1.9,5.8-4.2,7.3l-12.7,7.3c-2.3,1.3-6.1,1.3-8.6,0l-12.7-7.3c-2.3-1.3-4.2-4.5-4.2-7.3
				L-9.2,4.7L-9.2,4.7z"/>
		</g>
		<g>
			<path fill="#28AEE5" d="M25.7,0.8c-1.2,0.6-2.5,1.2-3.9,1.4c-1-1.2-2.7-1.8-4.3-1.8c-3.4,0-5.8,2.6-5.8,5.8c0,0.5,0,0.9,0.1,1.3
				C7,7.3,2.5,4.9-0.3,1.4c-0.5,0.9-0.9,1.8-0.9,3c0,2.1,1,3.8,2.7,4.8c-1,0-1.9-0.3-2.7-0.8c0,0,0,0,0,0.1c0,2.7,2.1,5.2,4.7,5.7
				c-0.5,0.1-1,0.1-1.6,0.1c-0.4,0-0.8,0-1.2-0.1c0.8,2.3,3,3.9,5.5,4c-2.1,1.6-4.5,2.6-7.4,2.6c-0.5,0-0.9,0-1.4-0.1
				c2.7,1.7,5.7,2.7,9.1,2.7c10.8,0,16.7-8.8,16.7-16.5c0-0.3,0-0.5,0-0.8c1.2-0.8,2.2-1.8,3-3c-1,0.5-2.2,0.8-3.4,0.9
				C24.3,3.2,25.2,2.1,25.7,0.8z"/>
		</g>
	</g>
</g>
</svg>
