<?xml version="1.0" encoding="utf-8"?>
<!-- Generator: Adobe Illustrator 18.1.0, SVG Export Plug-In . SVG Version: 6.00 Build 0)  -->
<!DOCTYPE svg PUBLIC "-//W3C//DTD SVG 1.1//EN" "http://www.w3.org/Graphics/SVG/1.1/DTD/svg11.dtd">
<svg version="1.1" id="Layer_1" xmlns="http://www.w3.org/2000/svg" xmlns:xlink="http://www.w3.org/1999/xlink" x="0px" y="0px"
	 viewBox="294 0 24 24" enable-background="new 294 0 24 24" xml:space="preserve">
<g id="Icons">
</g>
<g id="Layer_2">
	<g>
		<g display="none">
			<path display="inline" fill="#ED208A" d="M289.6,6.3c0-2.1,1.5-4.5,3.2-5.6l9.9-5.5c1.8-1,4.7-1,6.6,0l9.8,5.6
				c1.8,1,3.2,3.5,3.2,5.6v11.1c0,2.1-1.5,4.5-3.2,5.6l-9.8,5.6c-1.8,1-4.7,1-6.6,0l-9.8-5.6c-1.8-1-3.2-3.5-3.2-5.6L289.6,6.3
				L289.6,6.3z"/>
			<path display="inline" fill="#ED208A" d="M289.6,6.3c0-2.1,1.5-4.5,3.2-5.6l9.9-5.5c1.8-1,4.7-1,6.6,0l9.8,5.6
				c1.8,1,3.2,3.5,3.2,5.6v11.1c0,2.1-1.5,4.5-3.2,5.6l-9.8,5.6c-1.8,1-4.7,1-6.6,0l-9.8-5.6c-1.8-1-3.2-3.5-3.2-5.6L289.6,6.3
				L289.6,6.3z"/>
		</g>
		<g>
			<path fill="#ED208A" d="M316.5,3.4c-0.9,0.5-1.9,0.9-2.9,1.1c-0.8-0.9-2.1-1.4-3.3-1.4c-2.6,0-4.5,2-4.5,4.5c0,0.4,0,0.7,0.1,1
				c-3.7-0.2-7.2-2.1-9.3-4.7c-0.4,0.7-0.7,1.4-0.7,2.2c0,1.6,0.8,2.9,2.1,3.7c-0.8,0-1.5-0.2-2.1-0.6c0,0,0,0,0,0.1
				c0,2.1,1.6,4,3.6,4.4c-0.4,0.1-0.8,0.1-1.2,0.1c-0.3,0-0.6,0-0.9-0.1c0.6,1.8,2.3,3,4.2,3.1c-1.6,1.2-3.5,2-5.7,2
				c-0.4,0-0.7,0-1.1-0.1c2.1,1.3,4.4,2.1,7,2.1c8.3,0,12.9-6.8,12.9-12.7c0-0.2,0-0.4,0-0.6c0.9-0.6,1.7-1.4,2.3-2.3
				c-0.8,0.4-1.7,0.6-2.6,0.7C315.4,5.3,316.1,4.4,316.5,3.4z"/>
		</g>
	</g>
</g>
</svg>
