<?xml version="1.0" encoding="utf-8"?>
<!-- Generator: Adobe Illustrator 18.1.0, SVG Export Plug-In . SVG Version: 6.00 Build 0)  -->
<!DOCTYPE svg PUBLIC "-//W3C//DTD SVG 1.1//EN" "http://www.w3.org/Graphics/SVG/1.1/DTD/svg11.dtd">
<svg version="1.1" id="Layer_1" xmlns="http://www.w3.org/2000/svg" xmlns:xlink="http://www.w3.org/1999/xlink" x="0px" y="0px"
	 width="24px" height="24px" viewBox="-12 780 24 24" enable-background="new -12 780 24 24" xml:space="preserve">
<g id="Icons">
</g>
<g>
	<g>
		<path fill="#00B1F0" d="M7.4,780H-7.4c-2.6,0-4.6,2.1-4.6,4.6v4.9v9.9c0,2.6,2.1,4.6,4.6,4.6H7.4c2.6,0,4.7-2.1,4.7-4.6v-9.9v-4.9
			C12.1,782.1,10,780,7.4,780z M8.7,782.8l0.5,0v0.5v3.5l-4.1,0l0-4.1L8.7,782.8z M-3.4,789.6c0.8-1.1,2-1.8,3.4-1.8
			s2.7,0.7,3.4,1.8c0.5,0.7,0.8,1.5,0.8,2.5c0,2.3-1.9,4.2-4.2,4.2c-2.3,0-4.2-1.9-4.2-4.2C-4.2,791.1-3.9,790.3-3.4,789.6z
			 M9.7,799.4c0,1.3-1,2.3-2.3,2.3H-7.4c-1.3,0-2.3-1-2.3-2.3v-9.9h3.6c-0.3,0.8-0.5,1.6-0.5,2.5c0,3.6,3,6.6,6.6,6.6
			c3.6,0,6.6-3,6.6-6.6c0-0.9-0.2-1.7-0.5-2.5h3.6V799.4z"/>
	</g>
</g>
</svg>
