<?xml version="1.0" encoding="utf-8"?>
<!-- Generator: Adobe Illustrator 18.1.0, SVG Export Plug-In . SVG Version: 6.00 Build 0)  -->
<!DOCTYPE svg PUBLIC "-//W3C//DTD SVG 1.1//EN" "http://www.w3.org/Graphics/SVG/1.1/DTD/svg11.dtd">
<svg version="1.1" id="Layer_1" xmlns="http://www.w3.org/2000/svg" xmlns:xlink="http://www.w3.org/1999/xlink" x="0px" y="0px"
	 width="24px" height="24px" viewBox="-12 780 24 24" enable-background="new -12 780 24 24" xml:space="preserve">
<g id="Icons">
</g>
<g>
	<path display="none" fill="#0173B2" d="M11.9,798c0,3.3-2.7,6-6,6H-6c-3.3,0-6-2.7-6-6v-12c0-3.3,2.7-6,6-6H6c3.3,0,6,2.7,6,6V798z
		"/>
	<g>
		<rect x="-7.3" y="789.5" fill="#00B1F0" width="3.1" height="10"/>
		<circle fill="#00B1F0" cx="-5.7" cy="786.3" r="1.8"/>
		<path fill="#00B1F0" d="M7.5,794c0-2.7-0.6-4.8-3.7-4.8c-1.5,0-2.5,0.8-2.9,1.6h0v-1.4h-3v10h3.1v-4.9c0-1.3,0.2-2.6,1.9-2.6
			c1.6,0,1.6,1.5,1.6,2.6v4.9h3.1V794z"/>
	</g>
</g>
</svg>
