<?xml version="1.0" encoding="utf-8"?>
<!-- Generator: Adobe Illustrator 18.1.1, SVG Export Plug-In . SVG Version: 6.00 Build 0)  -->
<!DOCTYPE svg PUBLIC "-//W3C//DTD SVG 1.1//EN" "http://www.w3.org/Graphics/SVG/1.1/DTD/svg11.dtd">
<svg version="1.1" id="Layer_1" xmlns="http://www.w3.org/2000/svg" xmlns:xlink="http://www.w3.org/1999/xlink" x="0px" y="0px"
	 viewBox="0 0 100 100" enable-background="new 0 0 100 100" xml:space="preserve">
<circle fill="none" stroke="#28AEE5" stroke-width="4" stroke-miterlimit="10" cx="50" cy="50" r="47.5"/>
<g>
	<path fill="#28AEE5" stroke="#28AEE5" stroke-miterlimit="10" d="M72.6,19.3c2.5,1.1,2.1,3.3,2.1,5.8c1.1-1,1.9-1.7,2.7-2.4
		c1.1,1,2.1,1.9,3.1,2.8C69.6,36.4,58.8,47.1,48,57.8c-1-1-1.9-2-2.8-2.9c-0.2-0.2-0.4-0.4-0.6-0.5c0.6-0.3,1.3-0.5,1.7-0.9
		c7.1-7,14.1-14,21.2-20.9c1.5-1.4,2.3-2.9,2-4.9c-0.1-0.8,0-1.7,0-2.7c-14,0-27.8,0-41.8,0c0,16.9,0,33.7,0,50.8
		c13.8,0,27.7,0,41.7,0c0-10.1,0-20.3,0-30.9c-5.9,5.8-11.5,11.4-17.2,16.9c-1.1-1-2.1-1.9-3.2-2.9c10.8-10.7,21.6-21.4,32.4-32
		c1,1,2,1.9,3.2,3.1c-1.2,1.1-2.6,2.3-3.8,3.5c-1.7,1.7-3.4,3.4-5.2,5.1c-0.7,0.7-1,1.4-1,2.4c0.2,3.1,0.1,6.3,0.1,9.5
		c0,9,0,17.9,0,26.9c0,1.8-0.4,3.2-2.1,4c-16.9,0-33.7,0-50.6,0c0-20.6,0-41.3,0-62C38.9,19.3,55.8,19.3,72.6,19.3z"/>
	<path fill="#28AEE5" stroke="#28AEE5" stroke-miterlimit="10" d="M47.5,34.2c-4,0-8,0-12,0c-1.3,0-2.4-0.2-2.4-1.7
		c0-1.6,1.1-1.8,2.4-1.8c8.1,0,16.2,0,24.3,0c1.3,0,2.4,0.3,2.3,1.8c0,1.4-1.1,1.7-2.3,1.7C55.7,34.2,51.6,34.2,47.5,34.2z"/>
	<path fill="#28AEE5" stroke="#28AEE5" stroke-miterlimit="10" d="M42.3,40.7c2.3,0,4.7,0,7,0c1.2,0,2.1,0.4,2.1,1.7
		c0,1.3-0.9,1.8-2.2,1.8c-4.7,0-9.4,0-14.1,0c-1.2,0-2.2-0.4-2.2-1.8c0-1.4,1-1.7,2.3-1.7C37.7,40.7,40,40.7,42.3,40.7z"/>
	<path fill="#28AEE5" stroke="#28AEE5" stroke-miterlimit="10" d="M43.6,56.3c2.3,2.3,4.6,4.5,7,6.8c-3.7,1.4-7.3,2.8-11.3,4.3
		C40.9,63.4,42.3,59.8,43.6,56.3z"/>
</g>
</svg>
