<?xml version="1.0" encoding="utf-8"?>
<!-- Generator: Adobe Illustrator 18.1.0, SVG Export Plug-In . SVG Version: 6.00 Build 0)  -->
<!DOCTYPE svg PUBLIC "-//W3C//DTD SVG 1.1//EN" "http://www.w3.org/Graphics/SVG/1.1/DTD/svg11.dtd">
<svg version="1.1" id="Layer_1" xmlns="http://www.w3.org/2000/svg" xmlns:xlink="http://www.w3.org/1999/xlink" x="0px" y="0px"
	 width="24px" height="24px" viewBox="0 0 24 24" enable-background="new 0 0 24 24" xml:space="preserve">
<g id="Layer_2">
	<g>
		<g display="none">
			<path display="inline" fill="#28AEE5" d="M-4,6.8c0-2.1,1.5-4.5,3.2-5.6l9.9-5.5c1.8-1,4.7-1,6.6,0l9.8,5.6
				c1.8,1,3.2,3.5,3.2,5.6V18c0,2.1-1.5,4.5-3.2,5.6l-9.8,5.6c-1.8,1-4.7,1-6.6,0l-9.8-5.6c-1.8-1-3.2-3.5-3.2-5.6L-4,6.8L-4,6.8z"
				/>
			<path display="inline" fill="#28AEE5" d="M-4,6.8c0-2.1,1.5-4.5,3.2-5.6l9.9-5.5c1.8-1,4.7-1,6.6,0l9.8,5.6
				c1.8,1,3.2,3.5,3.2,5.6V18c0,2.1-1.5,4.5-3.2,5.6l-9.8,5.6c-1.8,1-4.7,1-6.6,0l-9.8-5.6c-1.8-1-3.2-3.5-3.2-5.6L-4,6.8L-4,6.8z"
				/>
		</g>
		<g>
			<path fill="#28AEE5" d="M22.9,3.8C22,4.3,21,4.7,19.9,4.9c-0.8-0.9-2.1-1.4-3.3-1.4c-2.6,0-4.5,2-4.5,4.5c0,0.4,0,0.7,0.1,1
				C8.5,8.8,5,7,2.9,4.3C2.5,5,2.2,5.7,2.2,6.6c0,1.6,0.8,2.9,2.1,3.7c-0.8,0-1.5-0.2-2.1-0.6c0,0,0,0,0,0.1c0,2.1,1.6,4,3.6,4.4
				c-0.4,0.1-0.8,0.1-1.2,0.1c-0.3,0-0.6,0-0.9-0.1c0.6,1.8,2.3,3,4.2,3.1c-1.6,1.2-3.5,2-5.7,2c-0.4,0-0.7,0-1.1-0.1
				c2.1,1.3,4.4,2.1,7,2.1c8.3,0,12.9-6.8,12.9-12.7c0-0.2,0-0.4,0-0.6c0.9-0.6,1.7-1.4,2.3-2.3c-0.8,0.4-1.7,0.6-2.6,0.7
				C21.8,5.7,22.5,4.8,22.9,3.8z"/>
		</g>
	</g>
</g>
</svg>
