<?xml version="1.0" encoding="utf-8"?>
<!-- Generator: Adobe Illustrator 18.1.1, SVG Export Plug-In . SVG Version: 6.00 Build 0)  -->
<!DOCTYPE svg PUBLIC "-//W3C//DTD SVG 1.1//EN" "http://www.w3.org/Graphics/SVG/1.1/DTD/svg11.dtd">
<svg version="1.1" xmlns="http://www.w3.org/2000/svg" xmlns:xlink="http://www.w3.org/1999/xlink" x="0px" y="0px"
	 viewBox="0 0 100 100" enable-background="new 0 0 100 100" xml:space="preserve">
<g id="Layer_2">
	<g>
		<path fill="#2BAEE4" d="M57.4,26.9c-1.1,3.4-2.8,4.8-6.4,4.7c-9.4-0.3-18.8-0.1-28.1-0.1c-0.8,0-1.6,0-2.6,0c0,11.3,0,22.4,0,33.6
			c19.8,0,39.5,0,59.4,0c0-11.2,0-22.3,0-33.6c-3.3,0-6.6,0-10.2,0c1.8-2.7,3.1-5.2,6.7-4.6c1.5,0.3,3,0,4.5,0
			c2.3,0.1,3.3,1,3.5,3.2c0,0.5,0,0.9,0,1.4c0,12.5,0,25,0,37.5c0,3.5-0.6,4.1-4.1,4.1c-20.1,0-40.3,0-60.4,0
			c-3.5,0-4.1-0.6-4.1-4.1c0-12.5,0-25,0-37.5c0-3.7,0.8-4.5,4.5-4.5c11.6,0,23.2,0,34.7,0C55.7,26.9,56.5,26.9,57.4,26.9z"/>
		<path fill="#2BAEE4" d="M48.3,52.2c-3.3-1.9-3.4-2.3-1.4-5.1c6.2-8.8,12.3-17.6,18.6-26.3c0.8-1.2,2-2.5,3.3-3
			c1.2-0.5,3.2-0.4,4.2,0.3c0.9,0.6,1.4,2.5,1.2,3.8c-0.2,1.4-1.1,2.8-2.1,3.9c-6.7,7.4-13.5,14.7-20.2,22.1
			C50.5,49.2,49.4,50.8,48.3,52.2z"/>
		<path fill="#2BAEE4" d="M39.9,82.5c2.6-1.6,2.7-4.2,3-7c4.5,0,9,0,13.4,0c0.3,0,0.8,0.6,1,1c0.8,2,1.6,4,2.4,6
			C53.4,82.5,46.6,82.5,39.9,82.5z"/>
		<path fill="#2BAEE4" d="M34.4,58.4c3.1,0,4.3-2,5-4.5c0.5-1.8,1.6-2.9,3.6-2.8c1.9,0.1,4.3,1.8,4.7,3.4c0.4,1.7-0.8,2.5-2.1,3
			C41.9,59,38.2,59.1,34.4,58.4z"/>
	</g>
</g>
<g id="Layer_1">
	<circle fill="none" stroke="#28AEE5" stroke-width="4" stroke-miterlimit="10" cx="50" cy="50" r="47.5"/>
</g>
</svg>
