<?xml version="1.0" encoding="utf-8"?>
<!-- Generator: Adobe Illustrator 18.1.0, SVG Export Plug-In . SVG Version: 6.00 Build 0)  -->
<!DOCTYPE svg PUBLIC "-//W3C//DTD SVG 1.1//EN" "http://www.w3.org/Graphics/SVG/1.1/DTD/svg11.dtd">
<svg version="1.1" xmlns="http://www.w3.org/2000/svg" xmlns:xlink="http://www.w3.org/1999/xlink" x="0px" y="0px"
	 viewBox="0 0 432.1 382" enable-background="new 0 0 432.1 382" xml:space="preserve">
<g id="Layer_1" display="none">
	
		<image display="inline" overflow="visible" width="1330" height="1278" xlink:href="89CE889CADDA9403.png"  transform="matrix(0.5 0 0 0.5 -21 7)">
	</image>
</g>
<g id="Layer_2">
	<path fill="#00B1F0" d="M148,276c0,0-48-109,73-149s154,66,155,95c48,18,54,59,54,59s-27-31-54-17c22.8-2.7,66,84,54,84
		c0,0-43-48-48-43c14.5,8.8,14,43,14,43s-22-39-28-38c8,16.5,15,89-13,106c9-40-43-83-43.5-80s21.5,57,0,105
		C266,422,253,354,253,354s-17,55-8,78c-39-30-26-96-26-96s-20,7-22,25c-9-17,10-39,10-39s-50.8,27-68.4,94C117,360,167,298,167,298
		s-34,5-43,39C124,282,148,276,148,276z"/>
	<path display="none" fill="none" stroke="#FF0000" stroke-miterlimit="10" d="M243,279.5c0,0,23,0.5,7,37.5"/>
	<path display="none" fill="none" stroke="#FF0000" stroke-miterlimit="10" d="M307,267c0,0-10,26,10,41"/>
	<line display="none" fill="none" stroke="#FF0000" stroke-miterlimit="10" x1="255.7" y1="293" x2="304.9" y2="287.5"/>
	<path display="none" fill="none" stroke="#FF0000" stroke-miterlimit="10" d="M265,292c0,0,6,45,24,40s4-44.5,4-44.5"/>
	<path display="none" fill="none" stroke="#FF0000" stroke-miterlimit="10" d="M280.3,287.5c0,0,3.5,39.9,9.7,39"/>
	<line display="none" fill="none" stroke="#FF0000" stroke-miterlimit="10" x1="298.2" y1="208" x2="341" y2="180"/>
	<line display="none" fill="none" stroke="#FF0000" stroke-miterlimit="10" x1="155" y1="194" x2="229" y2="202"/>
	<ellipse display="none" fill="none" stroke="#FF0000" stroke-miterlimit="10" cx="204.5" cy="231" rx="24.5" ry="23"/>
	<ellipse display="none" fill="none" stroke="#FF0000" stroke-miterlimit="10" cx="320.9" cy="230.8" rx="20.8" ry="22.8"/>
	<ellipse display="none" fill="none" stroke="#FF0000" stroke-miterlimit="10" cx="208" cy="236.4" rx="7" ry="5.6"/>
	<ellipse display="none" fill="none" stroke="#FF0000" stroke-miterlimit="10" cx="325.9" cy="225.5" rx="5.1" ry="5.5"/>
	<path display="none" fill="none" stroke="#FF0000" stroke-miterlimit="10" d="M396,348c0,0,83,61,85,130c0,0-75-87-85-83
		c0,0,43,163,32,198s-213,0-213,0c4-64-23-132-23-132c-30,34-42,90-42,90c-27-114,42-218.6,42-218.6"/>
</g>
<g id="Layer_3">
	<polygon fill="#FF008C" points="94,54 56,90 75,144 149,107 124,7 0,88 59,220 208,124 67,171 34,87 110,39 124,101 86,123 76,96 	
		"/>
</g>
</svg>
