<?xml version="1.0" encoding="utf-8"?>
<!-- Generator: Adobe Illustrator 18.1.1, SVG Export Plug-In . SVG Version: 6.00 Build 0)  -->
<!DOCTYPE svg PUBLIC "-//W3C//DTD SVG 1.1//EN" "http://www.w3.org/Graphics/SVG/1.1/DTD/svg11.dtd">
<svg version="1.1" id="Layer_1" xmlns="http://www.w3.org/2000/svg" xmlns:xlink="http://www.w3.org/1999/xlink" x="0px" y="0px"
	 viewBox="0 0 300 300" enable-background="new 0 0 300 300" xml:space="preserve">
<g id="Layer_1_1_" display="none">
	<g id="_x38_yOFCi.tif" display="inline" opacity="0.22">
	</g>
</g>
<path fill="none" d="M88.8,168c0.3,0.1,0.4,0.1,0.3,0C89.1,168,89,168,88.8,168c-0.4,0.2-0.8-0.2-1.3-0.8c0,0,0,0,0,0
	C88,167.8,88.4,168.2,88.8,168z"/>
<path fill="none" d="M152.2,221.1c0,0-0.1,0-0.1,0c0,0,0.2,0.1,0.4,0.3c0,0-0.1-0.1-0.1-0.1C152.4,221.2,152.3,221.1,152.2,221.1z"
	/>
<path fill="#ED208A" d="M152.6,221.4c-0.1-0.2-0.3-0.3-0.4-0.3c0,0,0,0,0.1,0c0,0,0.1,0.1,0.2,0.1
	C152.5,221.3,152.6,221.3,152.6,221.4z"/>
<path fill="none" d="M94.8,283.2c0-0.3,0-0.5,0-0.5s-0.1,0.5-0.1,1.3c0-0.1,0.1-0.2,0.1-0.3C94.7,283.5,94.8,283.3,94.8,283.2z"/>
<path fill="none" d="M88.8,168c0.3,0.1,0.4,0.1,0.3,0c0.1,0-0.5-0.4-1.6-0.9c0,0,0,0,0,0c0,0,0,0,0,0C88,167.8,88.4,168.2,88.8,168z
	"/>
<path fill="none" d="M80.2,173.8c-0.1,0.1-0.4,0.2-0.9,0.6C79.7,174,80,173.8,80.2,173.8z"/>
<path fill="none" d="M152.6,221.4c-0.1-0.2-0.3-0.3-0.4-0.3c0,0,0,0,0.1,0c0,0-0.1,0-0.1,0C152.1,221.1,152.3,221.2,152.6,221.4
	c-0.1,0-0.1-0.1-0.2-0.1C152.5,221.3,152.6,221.3,152.6,221.4z"/>
<path fill="#ED208A" d="M178.5,185.1c-0.7-34.8-27.3-34.8-27.3-34.8s-12.2,5.3-16,13.5c-3.7,8-8.6,9.6-8.8,9.6
	c-5.6-2.4-15.7-5.7-27.6-4.4c-10.2,0.5-14-8.4-14.2-8.9c0.1,0.4,1.5,5.1,2.8,7.1c0,0,0,0,0,0c0,0,0,0,0,0c1.1,0.5,1.8,0.8,1.6,0.9
	c0,0.1-0.1,0.1-0.3,0c-0.4,0.2-0.8-0.1-1.3-0.8c-3.9-1.6-13.9-4.4-20.2,0.8c7.1-1.9,16.4,0.8,16.4,0.8s-1.3,0.1-3.3,0.6l0,0
	c0,0,0,0,0,0l0.1,0.6c0.7-0.2,1.4-0.3,2.1-0.4c-7.3,2.7-11.1,5.5-12.8,9.6c-0.3,0.2-16,11.8-20.6,23.2c0,0-4.6,2.8-11.7,2.8
	c-7.1,0-12.1-3.4-18.2-3.4c-3.3,0-7.2,1-10.5,4.6c-2.8,3-5.1,7.9-6.3,15.7c-2.5,16.7,9.4,28.7,9.4,28.7s19.5,19.1,38.8,4.9
	c-0.9,4.2,0.8,7.1,0.8,7.1s0.5-7.7,3.2-8.6c-2.4,2.1-1.1,11.7,3.3,15.3c-1.5-6.4-0.1-8.9,0-9.1c-0.1,0.4-4.2,16.8,28.4,16.8
	c4.7,2,6.8,6.1,6.8,6.1c0.5-4.7-1.9-7-1.9-7c-8.6-9.7-6.2-11.7-7.9-14.3c-1.7-2.8-2.6-3.2-2.8-3.9c-0.2-0.7,2-3.6,2-3.3
	c0,0.2,13.1,0.9,19.1-1.6c6-2.4,7.6-7.3,12-9.7c4.4-2.4,14.4-4,14.4-4s0,0,0,0c0,0,0,0,0,0s5.6,7.8,5.6,13.5c0,3.6,0.9,7,2,9.6
	c0.3,0.7,0.6,1.3,0.9,1.8c0.7-2.8,4.4-10.8,9.3-14.3c4.9-3.5,6-14.4,6-14.4s0.2,7.6-1.1,10.9c6.7-4.3,3.8-22.5,1.6-25.2
	c-0.3-0.2-0.4-0.3-0.4-0.3c0,0,0.1,0,0.1,0c0,0-0.1,0-0.1,0c0.1,0,0.3,0.1,0.4,0.3c-0.1,0-0.1-0.1-0.2-0.1c0,0,0.1,0.1,0.1,0.1
	c1.1,0.9,4.1,3.3,4.3,5.5c1.5-5.8-2.3-5.8-2.3-5.8S179.2,220,178.5,185.1z M79.3,174.3c0.5-0.3,0.8-0.5,0.9-0.6
	C80,173.8,79.7,174,79.3,174.3z M80.2,173.7C80.2,173.7,80.2,173.7,80.2,173.7C80.2,173.7,80.2,173.7,80.2,173.7z"/>
<path fill="#ED208A" d="M138,260.9c-1.2-2.8-2.2-6.4-2.2-10.3c0-6-5.7-14.1-6-14.6c-0.7,0.1-10.9,1.8-15.5,4.3
	c-4.8,2.6-6.5,7.9-12.9,10.5s-20.6,1.9-20.6,1.7c0-0.3-2.4,2.9-2.2,3.6c0.2,0.7,1.1,1.2,3,4.2c1.8,2.8-0.9,5,8.5,15.5
	c0,0,2.6,2.4,2,7.5c-0.2,1.8-0.8,3.9-2,6.4c2-2.8,2.9-4.5,3.2-5.5c0-0.9,0.1-1.4,0.1-1.4s0.1,0.1,0,0.5c0,0.1,0,0.3-0.1,0.5
	c0,0.1-0.1,0.2-0.1,0.4c-0.1,2.5,0.4,8.2,5.9,13c-3.8-4.5-1.7-6.9-1.7-6.9s10.1,13.9,30.4,0c20.4-13.9,13.6-22.7,13.6-22.7
	s-1.3-1.7-2.6-4.3c0,0,0-0.1-0.1-0.1c0,0,0,0,0,0.1C138.6,262.3,138.3,261.6,138,260.9z"/>
<path fill="#ED208A" d="M134,253c0-5.8-5.6-13.5-5.6-13.5s0,0,0,0C128.7,239.9,133.9,247.4,134,253c-0.1,3.6,0.9,6.9,2,9.5
	c0.3,0.7,0.6,1.3,0.9,1.9c0,0,0,0,0-0.1c-0.3-0.6-0.6-1.2-0.9-1.8C134.9,259.9,134,256.6,134,253z"/>
<path fill="#ED208A" d="M94.8,283.2c0-0.3,0-0.5,0-0.5s-0.1,0.5-0.1,1.3c0-0.1,0.1-0.2,0.1-0.3C94.7,283.5,94.8,283.3,94.8,283.2z"
	/>
<path fill="#ED208A" d="M88.8,167.9c0.2,0.1,0.3,0.1,0.3,0.1c-0.1-0.1-0.6-0.4-1.6-0.8C88,167.8,88.5,168.2,88.8,167.9z"/>
<path fill="#ED208A" d="M87.5,167.1C87.6,167.2,87.6,167.2,87.5,167.1c1,0.4,1.6,0.8,1.6,0.9C89.3,168,88.7,167.6,87.5,167.1z"/>
<path fill="#ED208A" d="M80.2,173.8c-0.1,0.1-0.4,0.2-0.9,0.6C79.7,174,80,173.8,80.2,173.8z"/>
<path fill="#ED208A" d="M80.5,169.3c-4.9,1.1-13.7,4.1-17.2,11.9c0,0,6.8-8.9,17.3-11.3l0,0c0,0,0,0,0,0L80.5,169.3z"/>
<path fill="#ED208A" d="M80.5,169.3l0.1,0.6c0,0,0,0,0,0L80.5,169.3C80.5,169.3,80.5,169.3,80.5,169.3z"/>
<polygon fill="#BCBCBC" points="174,27.9 147.3,44.9 118.2,32.5 126.1,63.2 105.3,87 136.9,89 153.2,116.2 164.8,86.7 195.7,79.6 
	171.3,59.4 "/>
<polygon fill="#BCBCBC" points="252.3,19.2 242.2,0 233.1,19.8 211.7,23.5 227.7,38.2 224.6,59.7 243.5,49.1 263,58.7 258.8,37.4 
	273.9,21.8 "/>
<polygon fill="#BCBCBC" points="297.5,68.9 289.6,70 284.2,64 282.7,71.9 275.4,75.1 282.4,79 283.3,86.9 289.1,81.4 296.9,83.1 
	293.5,75.9 "/>
</svg>
