<?xml version="1.0" encoding="utf-8"?>
<!-- Generator: Adobe Illustrator 18.1.0, SVG Export Plug-In . SVG Version: 6.00 Build 0)  -->
<!DOCTYPE svg PUBLIC "-//W3C//DTD SVG 1.1//EN" "http://www.w3.org/Graphics/SVG/1.1/DTD/svg11.dtd">
<svg version="1.1" xmlns="http://www.w3.org/2000/svg" xmlns:xlink="http://www.w3.org/1999/xlink" x="0px" y="0px"
	 viewBox="-238 45 500 217" enable-background="new -238 45 500 217" xml:space="preserve">
<g id="Layer_2_1_">
	<rect x="-124" y="186" fill="#FFFFFF" width="264" height="76"/>
</g>
<g id="Layer_1">
	<g id="Layer_2">
		<g id="Layer_1_1_">
			<g id="dG7s1q_1_" display="none">
			</g>
		</g>
		<path fill="#28AEE5" d="M-221.6,261.9v-58.1h59.5c0,0-0.7-59.1,52.5-59.1c52.5,0,165.2,0,165.2,0v-31.6c0,0,0-7.2-7.2-7.2
			s-142.3,0-142.3,0s-3.7,0.1-3.7-4.5c0-4.5,0-47.1,0-47.1s0-3.1,3.1-3.1s154.6,0,154.6,0s47.3,5.7,47.3,50.4s0,39.9,0,39.9
			s1.6,4.8,8.2,4.8c6.6,0,13.3,0,13.3,0s47.3-0.3,47.3,43.6v18.9c0,0,66.2-13.8,69.4-10.9v64H123.5v-56c0,0,1.6-6.9-5.8-5.8h-222
			c0,0-5.6-0.5-5.1,3.7V262L-221.6,261.9L-221.6,261.9z"/>
		<path fill="#28AEE5" d="M-68.1,261.9H-15c0,0-1.1-20.2-26.6-20.2S-68.1,261.9-68.1,261.9z"/>
		<path fill="#28AEE5" d="M28.6,261.9h53.7c0,0-3.2-20.2-26.9-20.2S28.6,261.9,28.6,261.9z"/>
	</g>
</g>
</svg>
