<?xml version="1.0" encoding="utf-8"?>
<!-- Generator: Adobe Illustrator 18.1.0, SVG Export Plug-In . SVG Version: 6.00 Build 0)  -->
<!DOCTYPE svg PUBLIC "-//W3C//DTD SVG 1.1//EN" "http://www.w3.org/Graphics/SVG/1.1/DTD/svg11.dtd">
<svg version="1.1" id="Layer_1" xmlns="http://www.w3.org/2000/svg" xmlns:xlink="http://www.w3.org/1999/xlink" x="0px" y="0px"
	 viewBox="0 0 927.6 770" enable-background="new 0 0 927.6 770" xml:space="preserve">
<g>
	<path fill="#28AEE5" d="M28.4,750.2c5.9-10.2,12-20.3,18.1-30.3c6.2-10,12.4-20,18.7-30c12.7-19.9,25.6-39.6,38.9-59.1
		c26.6-38.9,54.6-77.1,84.5-113.7c7.5-9.1,15.1-18.2,22.9-27.2c7.8-8.9,15.7-17.8,23.8-26.5c8.1-8.7,16.4-17.2,25-25.5
		c8.6-8.3,17.3-16.4,26.4-24.3c9-7.9,18.5-15.4,28.2-22.6c9.8-7.2,19.9-13.9,30.7-20c10.7-6,22-11.4,34.1-15.5
		c12-4.1,24.9-6.8,38.3-7.2l0,0l21-0.4l-9.5,18.7l-91.3,180.5l0,0l-14.2-10.3L674.6,206l0,0l16.5-16.7l-6.3,23l-55.2,201.9l0,0
		l-22-11.7L914.2,41.6l0.8,0.6L627.3,418.5l-39.8,52.1l17.8-63.8l0,0L673,208.7l10.2,6.3l0,0L336.5,549.8L301.1,584l21.1-44.5l0,0
		l84.4-183.8l11.5,18.4l0,0c-10.2-0.2-20.7,1.5-31.1,4.5c-10.4,3-20.7,7.3-30.7,12.4c-10,5.1-19.8,11-29.3,17.3
		c-9.5,6.4-18.8,13.2-27.8,20.4c-9,7.2-17.9,14.7-26.6,22.4c-8.7,7.7-17.1,15.8-25.5,23.9c-8.3,8.1-16.5,16.5-24.6,25
		c-8.1,8.5-15.9,17.1-23.8,25.8c-31.2,35-60.6,71.6-88.8,109.3c-14.1,18.8-27.9,37.9-41.4,57.2c-6.7,9.6-13.4,19.3-20,29.1
		c-6.6,9.8-13.1,19.6-19.4,29.5L28.4,750.2z"/>
</g>
<g>
	<path fill="#ED208A" d="M22.2,727.8c5.9-10.2,12-20.3,18.1-30.3c6.2-10,12.4-20,18.7-30c12.7-19.9,25.6-39.6,38.9-59.1
		c26.6-38.9,54.6-77.1,84.5-113.7c7.5-9.1,15.1-18.2,22.9-27.2c7.8-8.9,15.7-17.8,23.8-26.5c8.1-8.7,16.4-17.2,25-25.5
		c8.6-8.3,17.3-16.4,26.4-24.3c9-7.9,18.5-15.4,28.2-22.6c9.8-7.2,19.9-13.9,30.7-20c10.7-6,22-11.4,34.1-15.5
		c12-4.1,24.9-6.8,38.3-7.2l0,0l21-0.4l-9.5,18.7l-91.3,180.5l0,0l-14.2-10.3l350.5-330.9l0,0l16.5-16.7l-6.3,23l-55.2,201.9l0,0
		l-22-11.7L908,19.2l0.8,0.6L621.1,396l-39.8,52.1l17.8-63.8l0,0l67.7-198.1l10.2,6.3l0,0L330.2,527.4l-35.3,34.1L316,517l0,0
		l84.4-183.8l11.5,18.4l0,0c-10.2-0.2-20.7,1.5-31.1,4.5c-10.4,3-20.7,7.3-30.7,12.4c-10,5.1-19.8,11-29.3,17.3
		c-9.5,6.4-18.8,13.2-27.8,20.4c-9,7.2-17.9,14.7-26.6,22.4c-8.7,7.7-17.1,15.8-25.5,23.9c-8.3,8.1-16.5,16.5-24.6,25
		c-8.1,8.5-15.9,17.1-23.8,25.8c-31.2,35-60.6,71.6-88.8,109.3c-14.1,18.8-27.9,37.9-41.4,57.2c-6.7,9.6-13.4,19.3-20,29.1
		c-6.6,9.8-13.1,19.6-19.4,29.5L22.2,727.8z"/>
</g>
</svg>
