<svg xmlns="http://www.w3.org/2000/svg" viewBox="0 0 24 28"><title>MagicBunny</title><path d="M8,0H8a2,2,0,0,1,2,2v8a0,0,0,0,1,0,0H6a0,0,0,0,1,0,0V2A2,2,0,0,1,8,0Z" style="fill:%23fff"/><path d="M16,0h0a2,2,0,0,1,2,2v8a0,0,0,0,1,0,0H14a0,0,0,0,1,0,0V2A2,2,0,0,1,16,0Z" style="fill:%23fff"/><rect x="9" y="6" width="1" height="4" style="fill:%23fff"/><path d="M8,2H8A1,1,0,0,1,9,3v7a0,0,0,0,1,0,0H7a0,0,0,0,1,0,0V3A1,1,0,0,1,8,2Z" style="fill:%23ff7bac"/><path d="M16,2h0a1,1,0,0,1,1,1v7a0,0,0,0,1,0,0H15a0,0,0,0,1,0,0V3A1,1,0,0,1,16,2Z" style="fill:%23ff7bac"/><path d="M4,10H20a0,0,0,0,1,0,0V27a1,1,0,0,1-1,1H5a1,1,0,0,1-1-1V10A0,0,0,0,1,4,10Z"/><rect x="4" y="14" width="16" height="4" style="fill:%23fff;opacity:0.8"/><rect y="10" width="24" height="2" rx="1" ry="1"/></svg>
