<?xml version="1.0" encoding="utf-8"?>
<!-- Generator: Adobe Illustrator 18.1.0, SVG Export Plug-In . SVG Version: 6.00 Build 0)  -->
<!DOCTYPE svg PUBLIC "-//W3C//DTD SVG 1.1//EN" "http://www.w3.org/Graphics/SVG/1.1/DTD/svg11.dtd">
<svg version="1.1" xmlns="http://www.w3.org/2000/svg" xmlns:xlink="http://www.w3.org/1999/xlink" x="0px" y="0px"
	 viewBox="0 0 886.9 901.9" enable-background="new 0 0 886.9 901.9" xml:space="preserve">
<g id="Layer_1" display="none">
	<g id="_x38_yOFCi.tif" display="inline" opacity="0.22">
		
			<image overflow="visible" width="381" height="601" id="Layer_0_1_" xlink:href="D900A3B73F23019D.png"  transform="matrix(1.9556 0 0 1.9556 -189.7655 396.5904)">
		</image>
	</g>
</g>
<g id="Layer_2">
	<g id="XMLID_1_">
		<g>
			<path fill="#ED208A" d="M202.8,550.6C202.8,550.6,202.8,550.6,202.8,550.6c5.1-12.4,16.5-20.9,38.5-29c-2.2,0.3-4.4,0.7-6.5,1.2
				l-0.4-1.8c5.9-1.3,9.9-1.7,9.9-1.7s-28-8-49.3-2.3c18.9-15.7,48.9-7.2,60.7-2.4c1.4,2,2.7,3,3.9,2.4c2.4,0.7,0.5-0.6-3.9-2.4
				c-4-5.9-8.1-20.1-8.4-21.2c0.6,1.5,11.9,28.5,42.6,26.9c35.7-3.7,66.1,6.1,82.9,13.3c0.5-0.2,15.3-4.8,26.4-29
				c11.3-24.7,48-40.7,48-40.7s80,0,82,104.7c2,104.7-72,108-72,108s11.3,0,6.8,17.3c-0.4-6.5-9.4-13.8-12.8-16.4
				c-0.5-0.5-0.9-0.9-1.3-0.9c0,0,0.5,0.3,1.3,0.9c6.7,8,15.3,62.9-4.7,75.7c4-10,3.3-32.7,3.3-32.7s-3.3,32.7-18,43.3
				c-14.7,10.7-25.8,35.2-27.9,43.3c-0.9-1.8-1.8-3.7-2.7-5.8c-3.3-7.9-6.1-17.9-6.1-28.8c0-17.3-16.7-40.7-16.7-40.7
				s-30,4.7-43.3,12c-13.3,7.3-18,22-36,29.3s-57.3,5.3-57.3,4.7c0-0.7-6.7,8-6,10c0.7,2,3.2,3.3,8.4,11.6
				c4.9,7.9-2.4,13.8,23.6,43.1c0,0,7.3,6.9,5.7,20.9c0,0-6.4-12.3-20.4-18.3c-98,0-85.7-49.3-85.3-50.6c0,0,0,0,0,0s0,0,0,0
				c-0.3,0.5-4.5,8,0,27.3c-13.3-10.7-17.1-39.8-10-46c-8.1,2.6-9.6,25.8-9.6,25.8s-5.1-8.5-2.4-21.2
				c-58,42.7-116.7-14.7-116.7-14.7s-35.7-36-28.3-86.3c3.4-23.2,10.4-38,18.8-47.1c9.9-10.8,21.6-13.9,31.5-13.9
				c18.3,0,33.3,10.3,54.7,10.3c21.3,0,35.2-8.3,35.2-8.3C154.7,586,202,551.2,202.8,550.6z M230.8,536.1c1.4-0.9,2.3-1.5,2.7-1.7
				C233.1,534.6,232.2,535.1,230.8,536.1z M233.5,534.3c0.1,0,0.1-0.1,0.1-0.1C233.6,534.3,233.6,534.3,233.5,534.3z"/>
			<path fill="#ED208A" d="M450,676.6c0.4,0.1,0.9,0.4,1.3,0.9C450.5,676.9,450,676.6,450,676.6z"/>
			<path fill="#ED208A" d="M411.3,819.3c0,0,18.7,24.7-38,63.3c-56.7,38.7-84.7,0-84.7,0s-5.8,6.8,4.7,19.3
				c-15.4-13.4-16.7-29-16.4-36.1c0.9-2.9,0.4-3.9,0.4-3.9s-0.3,1.5-0.4,3.9c-0.9,2.9-3.3,7.7-8.9,15.4c3.5-6.8,5.2-12.7,5.7-17.7
				c1.5-14.1-5.7-20.9-5.7-20.9c-26-29.3-18.6-35.2-23.6-43.1c-5.2-8.3-7.8-9.6-8.4-11.6c-0.7-2,6-10.7,6-10
				c0,0.7,39.3,2.7,57.3-4.7s22.7-22,36-29.3c13.3-7.3,43.3-12,43.3-12s16.7,23.3,16.7,40.7c0,10.9,2.8,20.9,6.1,28.8
				c0.9,2.1,1.8,4,2.7,5.8C407.8,814.7,411.3,819.3,411.3,819.3z"/>
			<path fill="#ED208A" d="M277.3,861.9c0,0,0.5,1-0.4,3.9C277,863.4,277.3,861.9,277.3,861.9z"/>
			<path fill="#ED208A" d="M255.7,514.5c4.5,1.8,6.3,3.1,3.9,2.4C258.4,517.6,257.1,516.5,255.7,514.5z"/>
			<path fill="#ED208A" d="M233.5,534.3c0.1,0,0.1-0.1,0.1-0.1C233.6,534.3,233.6,534.3,233.5,534.3z"/>
			<path fill="#ED208A" d="M233.5,534.4c-0.4,0.2-1.3,0.8-2.7,1.7C232.2,535.1,233.1,534.6,233.5,534.4z"/>
			<path fill="#ED208A" d="M182.8,556.9c10.3-23.5,37.1-32.6,51.7-35.9l0.4,1.8C203.2,530,182.8,556.9,182.8,556.9z"/>
			<path fill="#ED208A" d="M168,794.6C168,794.6,168,794.6,168,794.6C168,794.6,168,794.6,168,794.6z"/>
		</g>
		<g>
		</g>
	</g>
	<polygon fill="#BCBCBC" points="580.7,239.4 488,260.7 453,349.2 404,267.6 309,261.7 371.5,189.9 347.8,97.7 435.4,134.9 
		515.7,83.9 507.4,178.7 	"/>
	<polygon fill="#BCBCBC" points="783.2,176.4 724.6,147.5 667.6,179.5 676.9,114.8 628.9,70.5 693.2,59.4 720.5,0 751.1,57.8 
		816,65.4 770.4,112.3 	"/>
	<polygon fill="#BCBCBC" points="885.2,249.9 861.6,244.8 844.1,261.4 841.6,237.4 820.5,225.9 842.5,216.1 846.9,192.4 863,210.3 
		886.9,207.2 874.9,228.1 	"/>
</g>
</svg>
