<?xml version="1.0" encoding="utf-8"?>
<!-- Generator: Adobe Illustrator 18.1.0, SVG Export Plug-In . SVG Version: 6.00 Build 0)  -->
<!DOCTYPE svg PUBLIC "-//W3C//DTD SVG 1.1//EN" "http://www.w3.org/Graphics/SVG/1.1/DTD/svg11.dtd">
<svg version="1.1" xmlns="http://www.w3.org/2000/svg" xmlns:xlink="http://www.w3.org/1999/xlink" x="0px" y="0px"
	 viewBox="0 0 878.7 396.1" enable-background="new 0 0 878.7 396.1" xml:space="preserve">
<g id="Layer_1" display="none">
	<g id="dG7s1q_1_" display="inline">
		
			<image overflow="visible" width="700" height="360" id="dG7s1q_2_" xlink:href="E0E72C36C8B038C8.jpg"  transform="matrix(1.3738 0 0 1.3738 -39.6481 -98.4167)">
		</image>
	</g>
</g>
<g id="Layer_2">
	<path fill="#28AEE5" d="M0,396.1V286.9h112c0,0-1.3-111.2,98.7-111.2c98.7,0,310.7,0,310.7,0v-59.5c0,0,0-13.6-13.6-13.6
		c-13.6,0-267.6,0-267.6,0s-7,0.1-7-8.4s0-88.5,0-88.5s0-5.8,5.8-5.8s290.8,0,290.8,0s89,10.8,89,94.8s0,75,0,75s3,9,15.5,9
		s25,0,25,0s89-0.5,89,82v35.5c0,0,124.5-26,130.5-20.5v120.4H649.2V290.8c0,0,3-13-11-11H220.7c0,0-10.5-1-9.5,7v109.4H0z"/>
	<path fill="#28AEE5" d="M288.7,396.1h100c0,0-2-37.9-50-37.9S288.7,396.1,288.7,396.1z"/>
	<path fill="#28AEE5" d="M470.7,396.1h101c0,0-6-37.9-50.5-37.9S470.7,396.1,470.7,396.1z"/>
</g>
</svg>
