<?xml version="1.0" encoding="utf-8"?>
<!-- Generator: Adobe Illustrator 18.1.0, SVG Export Plug-In . SVG Version: 6.00 Build 0)  -->
<!DOCTYPE svg PUBLIC "-//W3C//DTD SVG 1.1//EN" "http://www.w3.org/Graphics/SVG/1.1/DTD/svg11.dtd">
<svg version="1.1" xmlns="http://www.w3.org/2000/svg" xmlns:xlink="http://www.w3.org/1999/xlink" x="0px" y="0px"
	 viewBox="-238 -238 500 500" enable-background="new -238 -238 500 500" xml:space="preserve">
<g id="Layer_2">
</g>
<g id="Layer_1">
	<polyline fill="#D3D3D3" stroke="#FF008C" stroke-miterlimit="10" points="139.5,504.8 185.2,183 507,137.3 185.6,89.8 
		139.5,-223.9 	"/>
	<polygon fill="#D3D3D3" stroke="#FF008C" stroke-miterlimit="10" points="140.4,504.8 140.4,137.3 140,-227 93.9,92.5 
		-227.1,137.3 95.2,184.3 	"/>
	<path fill="#D3D3D3" stroke="#FF008C" stroke-miterlimit="10" d="M139,136.7"/>
	<polyline fill="none" stroke="#FF008C" stroke-miterlimit="10" points="507.5,137 69.5,137 -226.6,137 94.4,137 140,137 94.4,92.2 
		140.9,66.5 185.6,89.8 140,137 185.6,182.7 140.4,211.8 95.2,184.3 69.5,137 94.4,92.2 	"/>
	<polyline fill="none" stroke="#FF008C" stroke-miterlimit="10" points="95.2,184.3 185.6,89.8 210.2,136.7 185.4,182.6 	"/>
	<polyline fill="#D3D3D3" stroke="#FF008C" stroke-miterlimit="10" points="185.2,183 229.4,176.7 297.6,296.9 178.4,231.1 
		185.2,183 297.6,296.9 297.6,296.9 	"/>
	<polyline fill="#D3D3D3" stroke="#FF008C" stroke-miterlimit="10" points="93.9,92.5 50.3,98.6 -17.5,-21.3 101.1,43.2 93.9,92.5 
		-17.5,-21.3 -17.5,-21.3 	"/>
	<polyline fill="#D3D3D3" stroke="#FF008C" stroke-miterlimit="10" points="95.2,184.3 101.5,228.7 -18.2,296.5 46.4,177.2 
		95.2,184.3 -18.2,296.5 -18.2,296.5 	"/>
	<polyline fill="#D3D3D3" stroke="#FF008C" stroke-miterlimit="10" points="185.6,89.8 179,46.3 298,-21.1 233.6,97.1 185.6,89.8 
		298,-21.1 298,-21.1 	"/>
</g>
</svg>
