<?xml version="1.0" encoding="utf-8"?>
<!-- Generator: Adobe Illustrator 18.1.0, SVG Export Plug-In . SVG Version: 6.00 Build 0)  -->
<!DOCTYPE svg PUBLIC "-//W3C//DTD SVG 1.1//EN" "http://www.w3.org/Graphics/SVG/1.1/DTD/svg11.dtd">
<svg version="1.1" id="Layer_1" xmlns="http://www.w3.org/2000/svg" xmlns:xlink="http://www.w3.org/1999/xlink" x="0px" y="0px"
	 viewBox="-5 81.6 625 616.9" enable-background="new -5 81.6 625 616.9" xml:space="preserve">
<g id="Layer_1_1_" display="none">
	
		<image display="inline" overflow="visible" enable-background="new    " width="4200" height="4200" xlink:href="93BC59982C779F78.jpeg"  transform="matrix(0.1469 0 0 0.1469 -3.06 78.372)">
	</image>
</g>
<g id="Layer_3">
	<polygon fill="#BCBCBC" stroke="#ED208A" stroke-width="2" stroke-miterlimit="10" points="307.1,84.7 307.1,690.5 345.4,424.5 
		610,387.6 344.7,348.6 	"/>
	<polygon fill="#BCBCBC" stroke="#ED208A" stroke-width="2" stroke-miterlimit="10" points="307.8,690.5 307.8,387.6 307.8,84.7 
		269.5,350.7 4.9,387.6 270.2,426.6 	"/>
	<polyline fill="#BCBCBC" stroke="#ED208A" stroke-width="2" stroke-miterlimit="10" points="610,387.6 249,387.6 4.9,387.6 
		269.5,387.6 307.1,387.6 269.5,350.7 307.8,329.5 344.7,348.6 307.1,387.6 344.7,425.2 307.8,446.4 270.2,426.6 249,387.6 
		269.5,350.7 	"/>
	<polygon fill="#BCBCBC" stroke="#ED208A" stroke-width="2" stroke-miterlimit="10" points="307.1,387.6 269.1,425.6 345.4,349.3 
		365.9,387.4 344.7,425.2 	"/>
</g>
<g id="Layer_4">
	<polyline fill="#BCBCBC" stroke="#ED208A" stroke-width="2" stroke-miterlimit="10" points="339.6,312.5 437.7,257 384.6,354.5 
		345.4,349.3 437.7,257 437.7,257 	"/>
	<polyline fill="#BCBCBC" stroke="#ED208A" stroke-width="2" stroke-miterlimit="10" points="232.9,354.8 177.3,256.7 274.8,309.8 
		269.7,349 177.3,256.7 177.3,256.7 	"/>
	<polyline fill="#BCBCBC" stroke="#ED208A" stroke-width="2" stroke-miterlimit="10" points="275.2,463.3 177,518.8 230.1,421.4 
		269.3,426.5 177,518.8 177,518.8 	"/>
	<polyline fill="#BCBCBC" stroke="#ED208A" stroke-width="2" stroke-miterlimit="10" points="381.8,421 437.4,519.2 339.9,466 
		345.1,426.8 437.4,519.2 437.4,519.2 	"/>
</g>
<line fill="#BCBCBC" stroke="#ED208A" stroke-width="2" stroke-miterlimit="10" x1="365.9" y1="387.4" x2="307.8" y2="387.6"/>
<line fill="#BCBCBC" stroke="#ED208A" stroke-width="2" stroke-miterlimit="10" x1="307.8" y1="446.4" x2="307.8" y2="329.5"/>
</svg>
