<?xml version="1.0" encoding="utf-8"?>
<!-- Generator: Adobe Illustrator 18.1.0, SVG Export Plug-In . SVG Version: 6.00 Build 0)  -->
<!DOCTYPE svg PUBLIC "-//W3C//DTD SVG 1.1//EN" "http://www.w3.org/Graphics/SVG/1.1/DTD/svg11.dtd">
<svg version="1.1" xmlns="http://www.w3.org/2000/svg" xmlns:xlink="http://www.w3.org/1999/xlink" x="0px" y="0px"
	 viewBox="0 0 1042.4 901.3" enable-background="new 0 0 1042.4 901.3" xml:space="preserve">
<g id="Layer_1" display="none">
	
		<image display="inline" overflow="visible" opacity="0.41" width="2048" height="1536" xlink:href="../../Lichtenstein:Mondrian/IMG_0226.png"  transform="matrix(0.6622 0 0 0.6622 -271.1205 -91.4034)">
	</image>
</g>
<g id="Layer_2">
	<g>
		<g>
			<g>
				<path fill="#C49362" d="M84,528.4C-46.5,571,53,406.2,53,406.2S318.4-133.4,706.7,343l-18.6,9.8
					c-39.4,112.5-19.2,298.5-19.2,298.5c-18.1,57-204.6,201-204.6,201C218.9,882.2,84,528.4,84,528.4"/>
			</g>
		</g>
		<g>
			<g>
				<path d="M84.1,528.9l-5.7,2l-5.8,1.8c-2,0.5-3.9,1.1-5.9,1.6l-3,0.7l-1.5,0.3l-1.5,0.3l-3,0.5l-3,0.4l-1.5,0.2l-1.5,0.1
					c-1,0.1-2,0.2-3.1,0.2c-4.1,0.2-8.3-0.1-12.4-1c-4.1-0.9-8.2-2.6-11.7-5.3c-3.5-2.8-6.1-6.5-7.7-10.6c-1.7-4.1-2.4-8.3-2.7-12.5
					c-0.3-4.2-0.1-8.4,0.3-12.6c0.9-8.3,2.7-16.3,5-24.2c2.3-7.9,5.1-15.6,8.1-23.1c3-7.6,6.4-15,9.9-22.3c1.8-3.7,3.6-7.3,5.5-10.9
					c1.9-3.6,3.8-7.2,5.8-10.8l-0.2,0.4c1.9-4.1,3.9-7.9,6-11.8c2-3.9,4.1-7.7,6.3-11.5c4.3-7.6,8.7-15.2,13.2-22.6
					c4.6-7.4,9.2-14.8,14.1-22.1c2.4-3.7,4.9-7.2,7.4-10.8c2.5-3.6,5-7.2,7.6-10.7c10.3-14.2,21.1-28,32.5-41.3
					c11.4-13.3,23.5-26.1,36.2-38.3c12.7-12.2,26.2-23.7,40.3-34.3c14.1-10.6,29-20.4,44.7-29c15.6-8.5,32-15.9,49-21.6
					c17-5.8,34.6-9.9,52.5-12.1c17.9-2.3,36.1-2.7,54.1-1.2c18,1.5,35.8,5,53.1,9.9l6.5,1.9c1.1,0.3,2.2,0.6,3.2,1l3.2,1.1l12.7,4.5
					l12.4,5.1l3.1,1.3c1,0.4,2,0.9,3,1.4l6.1,2.8c8.2,3.6,15.9,8,23.8,12.2c3.9,2.2,7.7,4.5,11.5,6.8l5.7,3.4l5.6,3.7l11.1,7.3
					c3.6,2.5,7.2,5.2,10.8,7.8c7.3,5.1,14.1,10.7,21.1,16.1c3.5,2.7,6.8,5.6,10.2,8.5l10.1,8.6c3.3,2.9,6.5,6,9.8,8.9
					c3.2,3,6.5,5.9,9.7,9l9.4,9.3l4.7,4.6l2.4,2.3l2.3,2.4l9.1,9.6l4.5,4.8l2.3,2.4l2.2,2.5l8.8,9.8l4.4,4.9c1.5,1.6,2.9,3.3,4.3,5
					l16.9,20.1l9.7,11.6l-13.5,7l-18.7,9.7l5.8-6.8l-2.8,8.5c-0.5,1.4-0.9,2.9-1.3,4.3l-1.3,4.3c-0.4,1.5-0.9,2.9-1.3,4.4l-1.1,4.4
					c-0.7,2.9-1.6,5.9-2.2,8.8l-2,8.9l-1.8,9c-0.7,3-1.1,6-1.7,9c-0.5,3-1.1,6-1.5,9.1l-1.4,9.1l-1.3,9.2c-0.5,3-0.8,6.1-1.2,9.2
					c-0.4,3.1-0.7,6.1-1,9.2l-1,9.2l-0.9,9.3c-0.3,3.1-0.5,6.2-0.8,9.3c-0.3,3.1-0.5,6.2-0.7,9.3c-0.2,3.1-0.4,6.2-0.6,9.3l-0.5,9.3
					c-0.3,6.2-0.6,12.4-0.8,18.6c-0.2,6.2-0.4,12.4-0.5,18.7l-0.1,9.3l-0.1,9.4c0,6.2,0,12.5,0.1,18.7c0.1,6.2,0.2,12.5,0.4,18.7
					c0.2,6.2,0.4,12.5,0.7,18.7c0.3,6.2,0.6,12.5,1,18.6l0.1,1.2l-0.3,0.8c-2.3,6.3-5.5,11.8-9,16.9c-3.5,5.2-7.2,10-11.1,14.7
					c-3.9,4.7-7.9,9.3-12,13.7c-4.1,4.5-8.3,8.8-12.6,13.1c-8.5,8.6-17.3,16.9-26.1,25.1c-8.8,8.2-17.9,16.2-26.9,24.2
					c-9,8-18.2,15.8-27.4,23.6c-9.2,7.8-18.4,15.5-27.7,23.2c-9.3,7.7-18.5,15.4-27.7,23.1l-27.7,23.3l-0.3,0.3l-0.5,0.1
					c-11.1,1.7-22.3,2.9-33.6,3.3c-11.3,0.2-22.7-0.2-34-1.4l-8.5-1.2c-1.4-0.2-2.8-0.5-4.2-0.7l-4.2-0.8c-1.4-0.3-2.8-0.5-4.2-0.8
					l-4.2-1c-2.8-0.7-5.6-1.3-8.3-2.1c-2.7-0.8-5.5-1.6-8.2-2.4l-8.1-2.8c-1.4-0.4-2.7-1-4-1.5l-4-1.6c-1.3-0.5-2.7-1-4-1.6
					l-3.9-1.7c-5.2-2.3-10.3-4.9-15.4-7.4l-7.5-4.1c-2.5-1.4-4.9-2.9-7.4-4.3c-2.5-1.4-4.9-3-7.2-4.5c-2.4-1.5-4.8-3.1-7.1-4.7
					c-2.3-1.6-4.7-3.2-7-4.9l-6.9-5c-9-6.9-17.7-14.1-26.1-21.7l-6.2-5.8c-2-1.9-4-3.9-6.1-5.9c-2-2-4-4-6-6c-2-2-3.9-4-5.8-6.1
					c-1.9-2.1-3.9-4.1-5.7-6.2l-5.6-6.3c-3.7-4.3-7.3-8.5-10.9-12.9c-7.1-8.7-14-17.6-20.6-26.7c-13.1-18.2-25.3-37-36.7-56.3
					c-5.7-9.6-11.2-19.4-16.4-29.2c-5.3-9.9-10.4-19.8-15.3-29.8c-4.9-10-9.6-20.2-14.2-30.3c-4.6-10.2-9-20.4-13.3-30.7l0.9-0.4
					c3.8,10.4,8.4,20.6,13.2,30.7c4.8,10.1,9.9,19.9,15.2,29.8c5.3,9.8,10.7,19.5,16.5,29.1c5.7,9.6,11.6,19,17.7,28.3
					c12.2,18.6,25.3,36.6,39.1,53.9c6.9,8.6,14.1,17.1,21.5,25.3c7.4,8.2,15,16.2,22.8,24c7.8,7.7,15.9,15.3,24.2,22.4
					c8.3,7.1,16.9,14,25.7,20.5c8.8,6.5,18,12.5,27.3,18.1c9.3,5.6,19,10.7,28.9,15.2l3.7,1.7c1.2,0.6,2.5,1.1,3.7,1.6l3.8,1.6
					c1.2,0.5,2.5,1.1,3.8,1.5l7.6,3l7.7,2.7c10.3,3.5,20.8,6.4,31.5,8.6c10.7,2.2,21.6,3.7,32.6,4.5c11,0.7,22,0.6,33.1-0.3
					l-0.9,0.4c4.9-3.5,9.7-7.1,14.5-10.7c4.8-3.6,9.6-7.2,14.3-11c9.5-7.4,18.8-15,28-22.7c4.6-3.9,9.2-7.8,13.7-11.7
					c4.6-3.9,9.1-7.9,13.6-11.9c9-7.9,17.9-16.1,26.7-24.3c8.8-8.2,17.4-16.6,25.9-25.1c8.5-8.5,16.8-17.2,24.8-26.1
					c4-4.4,7.9-9,11.7-13.6c3.8-4.6,7.5-9.3,11-14.1c3.5-4.8,6.8-9.7,9.8-14.7c2.9-5,5.5-10.2,7-15.3l-0.2,2
					c-0.9-6.3-1.6-12.6-2.3-18.8c-0.7-6.3-1.3-12.5-1.9-18.8c-0.6-6.3-1.1-12.6-1.6-18.9c-0.5-6.3-0.9-12.6-1.3-18.9l-0.5-9.5
					l-0.5-9.5c-0.3-6.3-0.5-12.6-0.7-19c-0.2-6.3-0.3-12.6-0.4-19l0-9.5c0-3.2,0.1-6.3,0.1-9.5c0-3.2,0.1-6.3,0.2-9.5
					c0.1-3.2,0.1-6.3,0.3-9.5l0.4-9.5c0.2-3.2,0.4-6.3,0.6-9.5c0.2-3.2,0.4-6.3,0.7-9.5c0.3-3.2,0.5-6.4,0.8-9.5l0.9-9.5
					c0.3-3.2,0.8-6.3,1.2-9.5c0.4-3.2,0.8-6.3,1.3-9.5c0.5-3.2,0.9-6.3,1.5-9.5l1.7-9.5l2-9.5c0.6-3.2,1.4-6.3,2.2-9.5l1.1-4.7
					c0.4-1.6,0.9-3.1,1.3-4.7l1.3-4.7c0.4-1.6,0.9-3.1,1.4-4.7l3-9.3l1.4-4.4l4.4-2.3l18.6-9.8l-3.8,18.6l-16.5-19.7
					c-1.4-1.7-2.8-3.2-4.2-4.8l-4.3-4.8l-8.5-9.6l-2.1-2.4l-2.2-2.3l-4.4-4.6l-8.8-9.3l-2.2-2.3l-2.3-2.2l-4.5-4.5l-9.1-9
					c-3-3-6.2-5.8-9.3-8.7c-3.1-2.9-6.2-5.8-9.4-8.6l-9.6-8.3c-3.2-2.7-6.4-5.6-9.7-8.2c-6.7-5.2-13.2-10.7-20.1-15.5
					c-3.4-2.5-6.8-5-10.2-7.5l-10.5-7l-5.3-3.5l-5.4-3.3c-3.6-2.2-7.2-4.4-10.8-6.5c-7.4-3.9-14.7-8.2-22.3-11.7l-5.7-2.7
					c-0.9-0.4-1.9-0.9-2.8-1.3l-2.9-1.2l-11.5-4.9l-11.8-4.3l-2.9-1.1c-1-0.3-2-0.6-3-0.9l-6-1.8c-15.9-4.7-32.3-8-48.7-9.7
					c-16.5-1.6-33.1-1.5-49.6,0.3c-16.5,1.8-32.8,5.4-48.7,10.4c-15.9,5-31.4,11.6-46.3,19.3c-14.9,7.8-29.3,16.7-43,26.6
					c-13.8,9.9-26.9,20.6-39.5,32.1c-12.6,11.4-24.7,23.5-36.2,36.2c-11.5,12.7-22.5,25.8-33,39.3c-10.5,13.5-20.4,27.5-29.9,41.8
					c-4.7,7.1-9.3,14.4-13.8,21.7c-2.2,3.7-4.4,7.4-6.5,11.1c-2.1,3.7-4.2,7.5-6.2,11.1l-0.2,0.3l0,0.1c-2,3.3-4.1,6.7-6,10.2
					c-2,3.5-3.9,6.9-5.8,10.4c-3.7,7-7.3,14.1-10.5,21.4c-3.3,7.2-6.3,14.6-8.8,22c-2.5,7.5-4.7,15.1-5.8,22.8
					c-0.6,3.8-0.9,7.7-0.8,11.5c0.1,3.8,0.6,7.6,1.8,11c1.2,3.5,3.2,6.6,5.9,9c2.7,2.4,6.1,4.1,9.8,5.1c3.7,1,7.6,1.5,11.5,1.5
					c1,0,2,0,3,0l1.5,0l1.5-0.1l3-0.2l3-0.4l1.5-0.2l1.5-0.2l2.9-0.5c2-0.4,3.9-0.8,5.9-1.2l5.8-1.4l5.8-1.6L84.1,528.9z"/>
			</g>
		</g>
	</g>
	<g>
		<path d="M464.3,469.2c0,0-1.8,0.4-4.9,0.9c-3.1,0.5-7.7,1.2-13.1,1.8c-5.4,0.6-11.8,1.2-18.6,1.6c-3.4,0.2-6.9,0.5-10.5,0.6
			c-3.6,0.2-7.2,0.3-10.9,0.4c-3.6,0.2-7.3,0.3-10.9,0.5c-3.6,0.2-7.1,0.3-10.5,0.3c-3.4-0.1-6.7-0.3-9.8-0.7
			c-3.1-0.3-6.1-0.7-8.8-1.2c-2.7-0.4-5.2-0.9-7.4-1.4c-2.2-0.5-4.1-1-5.7-1.4c-1.6-0.4-2.8-0.8-3.6-1.1c-0.8-0.3-1.3-0.4-1.3-0.4
			l0.1-1c0,0,0.5-0.1,1.3-0.3c0.9-0.2,2.1-0.5,3.7-0.7c3.2-0.6,7.8-1.2,13.2-1.6c2.7-0.2,5.7-0.4,8.8-0.5c3.1-0.1,6.4-0.2,9.8,0
			c3.4,0.1,6.9,0.5,10.4,0.8c3.5,0.3,7.2,0.7,10.8,0.9c3.6,0.2,7.2,0.4,10.8,0.6c3.6,0.2,7,0.3,10.4,0.5c3.4,0.2,6.7,0.3,9.8,0.4
			c3.1,0.1,6,0.2,8.8,0.2c2.7,0,5.2,0.1,7.4,0.1c2.2,0,4.1,0,5.7,0c3.2,0,5-0.2,5-0.2L464.3,469.2z"/>
	</g>
	<g>
		<path d="M421.7,561.8c0,0,2.3-0.1,6.2,0.1c2,0.1,4.4,0.2,7.1,0.5c2.8,0.2,5.8,0.6,9.2,1.1c3.4,0.5,7,1.2,10.8,2
			c3.8,0.9,7.9,2,11.9,3.4c4.1,1.5,8.3,3.3,12.2,6c2,1.3,3.9,2.9,5.6,4.9c1.6,2,3,4.5,3.5,7.2c0.5,2.7,0.2,5.6-0.7,8
			c-0.9,2.5-2.2,4.6-3.6,6.6c-2.9,3.8-6.3,6.9-9.6,9.6c-3.4,2.7-6.8,5-10.2,7.1c-1.7,1.1-3.3,2-4.9,2.9c-1.6,0.9-3.2,1.7-4.7,2.5
			c-1.5,0.8-3,1.5-4.3,2.2c-1.4,0.7-2.7,1.3-4,1.9c-2.5,1.2-4.7,2.1-6.5,2.9c-3.6,1.5-5.7,2.4-5.7,2.4l-0.4-0.9c0,0,1.9-1.1,5.3-3.1
			c1.7-1,3.7-2.2,6.1-3.6c1.2-0.7,2.4-1.5,3.7-2.2c1.3-0.8,2.7-1.7,4.1-2.6c1.4-0.9,2.9-1.9,4.4-2.8c1.5-1,3-2.1,4.6-3.2
			c3.1-2.2,6.3-4.6,9.4-7.3c3.1-2.7,6.1-5.6,8.5-9c1.1-1.7,2.1-3.4,2.7-5.2c0.6-1.8,0.7-3.6,0.4-5.2c-0.6-3.4-3.5-6.3-6.8-8.6
			c-3.4-2.3-7.2-4.1-11-5.6c-3.8-1.5-7.6-2.7-11.2-3.8c-3.6-1.1-7.2-1.9-10.4-2.7c-3.2-0.8-6.3-1.4-8.9-2c-2.7-0.5-5-1-6.9-1.4
			c-3.9-0.7-6.1-1.1-6.1-1.1L421.7,561.8z"/>
	</g>
	<ellipse cx="223.6" cy="462.1" rx="22.2" ry="105.8"/>
	<ellipse cx="544.4" cy="462.3" rx="15" ry="95.5"/>
	<g>
		<g>
			<path d="M108.4,556.8c0,0-20.5-58.8-15.8-145.4c-67.9,6.6-45.8-37.7-45.8-37.7S-5.2,391,64.2,286.9
				c-99.5,41,20.5-115.2,20.5-115.2s-88.4,1.6,23.7-26.8C135.3,78.5,301,23.2,301,23.2s37.9-7.9-15.8,45.8c0,0,96.3-68.7,118.4-46.2
				c0,19.4-22.1,23.7,104.2-4.5C458.9,53.2,520.4,39,629.4,9s-14.2,37.9-14.2,37.9S702,24.8,694.1,39c-7.9,14.2-71,61.6,41,37.9
				c31.6-3.2-9.5,23.7-9.5,23.7l31.6,31.6c11.1-6.3,12.6,31.6,12.6,31.6s50.5-1.6,18.9,44.2c60,9.5,10.4,97.9,10.4,97.9
				s-43.5,83.7-79.8,83.7S706.7,350,706.7,350l-90-60c0,0-47.4-34.7-45.8-45.8s-30,31.8-42.6,34.9c-12.6,3,7.9-44.3,7.9-44.3
				s-31.6,22.1-52.1,22.1s-40.6-22.1-40.6-22.1s42.7,148.3-58.8-28.4c-63.1,41-110.5,26.8-45.8-9.5S84.7,359.5,228.4,215.8
				S122.6,326.3,122.6,326.3S140,541,108.4,556.8z"/>
		</g>
	</g>
	<g>
		<path d="M460.2,373.3c0,0,0.1-0.2,0.4-0.6c0.3-0.4,0.7-1,1.3-1.7c1.2-1.4,3-3.4,5.4-5.6c0.6-0.6,1.3-1.1,2-1.7
			c0.7-0.6,1.4-1.2,2.2-1.8c0.8-0.6,1.6-1.2,2.5-1.8c0.9-0.6,1.8-1.2,2.8-1.8c1.9-1.2,4-2.4,6.3-3.6c2.3-1.1,4.7-2.3,7.3-3.3
			c1.3-0.5,2.6-1,4-1.5c1.4-0.5,2.8-0.9,4.2-1.4c2.9-0.9,5.9-1.7,9-2.5c6.2-1.5,12.8-3.1,19.8-4c3.5-0.6,7-0.9,10.6-1.3
			c1.8-0.2,3.6-0.2,5.4-0.4c0.9,0,1.8-0.1,2.7-0.1c0.9-0.1,1.8-0.1,2.8-0.1c3.7,0,7.4-0.1,11.2,0.2c1.9,0.1,3.7,0.2,5.6,0.3l5.6,0.6
			l2.8,0.3l2.8,0.5c1.9,0.3,3.7,0.7,5.5,1c1.8,0.4,3.6,0.9,5.5,1.3l2.7,0.7c0.9,0.2,1.8,0.4,2.7,0.7c7.1,2.1,13.9,4.7,20.2,7.7
			c3.1,1.6,6.3,3,9.1,4.8c2.9,1.7,5.8,3.3,8.3,5.2c1.3,0.9,2.6,1.8,3.9,2.7c1.3,0.9,2.5,1.7,3.6,2.7c2.3,1.9,4.5,3.7,6.7,5.5
			c2.1,1.8,3.9,3.7,5.7,5.5c0.9,0.9,1.8,1.7,2.6,2.6c0.8,0.8,1.6,1.7,2.3,2.6c1.5,1.7,2.8,3.2,4.1,4.7c0.6,0.7,1.2,1.4,1.8,2.1
			c0.5,0.7,1,1.4,1.5,2c1.9,2.5,3.4,4.6,4.4,5.9c1,1.4,1.5,2.1,1.5,2.1l-0.8,0.6c0,0-0.7-0.6-1.9-1.7c-1.2-1.1-3.1-2.8-5.4-4.9
			c-0.6-0.5-1.2-1.1-1.8-1.7c-0.7-0.5-1.4-1.1-2.1-1.7c-1.5-1.2-3-2.5-4.7-3.8c-0.8-0.7-1.7-1.4-2.6-2.1c-0.9-0.7-1.9-1.3-2.9-2
			c-2-1.4-4-2.9-6.2-4.4c-2.2-1.4-4.5-2.8-6.9-4.3c-1.2-0.8-2.5-1.4-3.7-2.1c-1.3-0.7-2.6-1.4-3.9-2.1c-2.6-1.5-5.5-2.6-8.3-4
			c-2.8-1.4-5.8-2.4-8.8-3.6c-6-2.3-12.5-4-19-5.5c-0.8-0.2-1.6-0.3-2.5-0.5l-2.5-0.4c-1.7-0.3-3.3-0.6-5-0.8
			c-1.7-0.2-3.4-0.4-5.1-0.6l-2.5-0.3l-2.6-0.1l-5.1-0.3c-1.7-0.1-3.4,0-5.1-0.1c-3.4-0.1-6.8,0.1-10.2,0.2c-0.8,0-1.7,0.1-2.5,0.2
			c-0.8,0.1-1.7,0.2-2.5,0.2c-1.7,0.2-3.3,0.2-5,0.5c-3.3,0.4-6.5,0.8-9.7,1.4c-6.3,1-12.4,2.5-18.2,3.9c-2.8,0.8-5.6,1.5-8.3,2.4
			c-1.3,0.4-2.6,0.8-3.9,1.2c-1.3,0.4-2.5,0.8-3.8,1.2c-2.5,0.7-4.9,1.4-7.2,2c-2.3,0.7-4.5,1.2-6.6,1.7c-4.2,1-7.9,1.8-11.1,2.4
			c-3.1,0.6-5.7,1-7.5,1.2c-1.8,0.2-2.8,0.3-2.8,0.3L460.2,373.3z"/>
	</g>
	<g>
		<path d="M133.5,401.6c4.9-1.5,9.7-2.9,14.6-4.3c4.9-1.3,9.8-2.6,14.8-3.8c4.9-1.2,9.9-2.3,14.9-3.4l7.5-1.5l7.5-1.4
			c5-0.9,10-1.8,15-2.6c2.5-0.4,5-0.8,7.6-1.1c2.5-0.4,5-0.7,7.6-1c2.5-0.3,5.1-0.6,7.6-0.9l7.6-0.8c5.1-0.4,10.2-0.9,15.2-1.1
			c5.1-0.4,10.2-0.5,15.3-0.6c5.1,0,10.2-0.1,15.3,0.1l3.8,0.1c1.3,0,2.6,0.1,3.8,0.2c2.6,0.2,5.1,0.3,7.7,0.5l7.7,0.7
			c2.6,0.2,5.1,0.6,7.6,1l3.8,0.5l3.8,0.7l3.8,0.7l1.9,0.3l1.9,0.4l7.5,1.7l7.5,2.1c2.5,0.6,4.9,1.6,7.4,2.4l3.7,1.2
			c1.2,0.5,2.4,1,3.6,1.5l3.6,1.5l1.8,0.7c0.6,0.3,1.2,0.6,1.8,0.8l7,3.4l2.2,1.1L375,403c-5.8,20.9-11.2,42-16.5,63.1
			c-5.3,21.1-10.5,42.2-15.5,63.4l-0.8,3.4l-3.5-0.1l-51.3-1.8l-25.7-0.9l-25.7-1.1l-25.6-1.2c-8.5-0.5-17.1-0.9-25.6-1.4l-25.6-1.5
			c-8.5-0.5-17.1-1.1-25.6-1.6l-4-0.3l0.1-3.9l0.3-14.6l0.3-14.6l0.4-14.6l0.4-14.6l0.5-14.6l0.5-14.6l0.6-14.6l0.7-15L133.5,401.6z
			 M134.2,402.5l0.7,14.2l0.6,14.6l0.5,14.6l0.5,14.6l0.4,14.6l0.4,14.6l0.3,14.6l0.3,14.6l-4-4.1c8.6,0.2,17.1,0.4,25.7,0.7
			l25.7,0.9c8.6,0.3,17.1,0.6,25.7,1l25.7,1.1l25.6,1.3l25.6,1.4l51.3,2.9l-4.3,3.2c5.5-21.1,11-42.2,16.6-63.2
			c5.7-21,11.5-42,17.7-62.9l1.5,3.6l-6.6-3.4c-0.6-0.3-1.1-0.6-1.7-0.8l-1.7-0.7l-3.4-1.5c-1.1-0.5-2.3-1-3.4-1.5l-3.5-1.3
			c-2.4-0.8-4.7-1.8-7.1-2.4l-7.2-2.1l-7.3-1.8l-1.8-0.4l-1.8-0.4l-3.7-0.7l-3.7-0.7l-3.7-0.6c-2.5-0.4-5-0.8-7.5-1.1l-7.5-0.8
			c-2.5-0.3-5-0.4-7.5-0.6c-1.3-0.1-2.5-0.2-3.8-0.3l-3.8-0.2c-5-0.3-10.1-0.3-15.1-0.4c-5,0.1-10.1,0.1-15.1,0.3
			c-5.1,0.1-10.1,0.5-15.1,0.8l-7.6,0.6c-2.5,0.2-5,0.5-7.6,0.7c-2.5,0.2-5,0.5-7.5,0.8c-2.5,0.3-5,0.6-7.5,1c-5,0.7-10,1.4-15,2.2
			l-7.5,1.3l-7.5,1.4c-5,1-9.9,1.9-14.9,3c-5,1.1-9.9,2.2-14.8,3.4C143.7,399.9,138.9,401.1,134.2,402.5z"/>
	</g>
	<g>
		<path d="M321.1,373.8c0,0-0.1-0.2-0.3-0.6c-0.2-0.4-0.5-0.9-0.9-1.7c-0.8-1.5-2-3.6-3.8-6.2c-1.8-2.6-3.9-5.7-6.8-8.9
			c-2.8-3.2-6.1-6.8-10.1-10.1c-4-3.3-8.5-6.6-13.7-9.3c-5.2-2.7-10.9-4.9-17-6.5c-1.5-0.3-3.1-0.6-4.7-0.9
			c-0.8-0.1-1.5-0.4-2.4-0.4c-0.8-0.1-1.6-0.2-2.4-0.3c-0.8-0.1-1.6-0.2-2.4-0.3l-1.2-0.1c-0.4,0-0.8,0-1.2,0
			c-1.6,0-3.3-0.1-4.9-0.1l-1.2,0l-1.2,0.1l-2.5,0.1l-2.5,0.1l-1.2,0.1c-0.4,0-0.8,0.1-1.3,0.2c-1.7,0.2-3.3,0.4-5,0.7
			c-0.8,0.1-1.7,0.2-2.5,0.4l-2.5,0.5l-5,1c-0.8,0.1-1.7,0.4-2.5,0.6l-2.5,0.7c-1.6,0.5-3.3,0.9-4.9,1.4c-1.6,0.5-3.2,1.1-4.8,1.7
			c-1.6,0.6-3.2,1.1-4.8,1.7c-1.6,0.6-3.1,1.3-4.7,1.9c-1.5,0.6-3.1,1.3-4.6,1.9c-0.8,0.3-1.5,0.6-2.3,1c-0.7,0.4-1.5,0.7-2.2,1.1
			c-2.9,1.4-5.8,2.8-8.7,4.2c-2.8,1.5-5.5,3-8.1,4.4c-1.3,0.7-2.6,1.4-3.9,2.1c-1.3,0.8-2.5,1.5-3.7,2.2c-2.4,1.5-4.8,2.9-7,4.2
			c-4.5,2.7-8.4,5.7-12.1,7.8c-0.9,0.5-1.9,1-2.8,1.4c-0.9,0.4-1.8,0.9-2.7,1.2c-1.8,0.8-3.5,1.3-5.1,1.8c-3.2,0.9-6,1.2-8.1,1.2
			c-1,0-1.8,0-2.4,0c-0.3,0-0.5,0-0.6,0c-0.1,0-0.2,0-0.2,0l-0.6-0.8c0,0,0-0.1,0-0.2c0-0.1,0.1-0.4,0.2-0.6
			c0.1-0.5,0.4-1.3,0.7-2.3c0.7-1.9,1.9-4.5,3.8-7.3c1.9-2.8,4.5-5.9,8.1-8.6c1.8-1.4,3.8-2.6,5.9-4c1.1-0.7,2.1-1.4,3.2-2.1
			c0.6-0.4,1.1-0.7,1.7-1.1c0.6-0.3,1.2-0.7,1.8-1c2.4-1.4,4.9-2.9,7.5-4.4c1.3-0.8,2.6-1.5,3.9-2.3c1.4-0.7,2.8-1.4,4.2-2.2
			c2.8-1.5,5.8-3,8.7-4.5c3.1-1.4,6.2-2.8,9.4-4.2c0.8-0.4,1.6-0.7,2.4-1.1c0.8-0.3,1.7-0.6,2.5-1c1.7-0.6,3.4-1.3,5.1-1.9
			c1.7-0.6,3.4-1.3,5.1-1.9c1.8-0.5,3.5-1.1,5.3-1.6c1.8-0.5,3.6-1.1,5.4-1.6c1.8-0.4,3.7-0.8,5.5-1.2l2.8-0.6
			c0.9-0.2,1.8-0.4,2.8-0.6l5.7-0.8l2.8-0.4c0.9-0.1,1.9-0.1,2.9-0.2c1.9-0.1,3.8-0.2,5.7-0.4c0.5,0,1-0.1,1.4-0.1l1.4,0l2.9,0
			l2.9,0.1l1.4,0l1.4,0.1c7.6,0.6,15,2.2,21.9,4.5c6.9,2.4,13.1,5.7,18.5,9.4c1.3,1,2.6,1.9,3.9,2.9c1.3,1,2.4,2,3.6,3
			c1.2,1,2.2,2.1,3.3,3.1c1,1.1,2.1,2,3,3.1c3.8,4.2,6.7,8.4,9.1,12.3c2.4,3.9,4.1,7.4,5.4,10.3c1.3,2.9,2.1,5.3,2.6,7
			c0.3,0.8,0.4,1.5,0.6,1.9c0.1,0.4,0.2,0.7,0.2,0.7L321.1,373.8z"/>
	</g>
	<g>
		<path d="M481,380.5c7.8-0.2,15.6-0.3,23.4-0.3c7.8-0.1,15.6-0.1,23.4-0.1c7.8,0,15.6,0,23.4,0.1c7.8,0.1,15.6,0.2,23.4,0.5
			c15.6,0.5,31.2,1.3,46.8,2.9c7.8,0.8,15.6,1.8,23.3,3.2c7.7,1.3,15.5,3.1,23,5.6c3.8,1.3,7.5,2.8,11.2,4.7c1.8,1,3.6,2.1,5.3,3.5
			c1.7,1.3,3.3,3,4.5,5c0.3,0.5,0.6,1,0.9,1.6l0.7,1.7c0.2,0.6,0.3,1.2,0.4,1.8l0,0.2l0,0.1l0,0.3l0,0.4l0.1,0.7
			c0.1,1,0.2,1.9,0.2,3l0,3.2l0,0.8l-0.1,0.8l-0.1,1.5c-0.1,1-0.2,2-0.3,3c-0.3,2-0.6,4-1,5.9c-1.6,7.8-4,15.4-6.6,22.8
			c-2.6,7.4-5.5,14.7-8.6,22c-6.2,14.4-13,28.5-20.1,42.4c-3.6,7-7.2,13.9-11,20.7c-3.7,6.9-7.5,13.7-11.5,20.5l-1.4,2.5l-2.9-0.5
			l-41.9-6.6l-21-3.3l-20.9-3.4c-7-1.2-14-2.3-20.9-3.5c-7-1.2-13.9-2.4-20.9-3.6l-20.9-3.7l-20.9-3.9l-4.1-0.8l0.2-4
			c0.2-3.2,0.4-6.3,0.7-9.4l0.7-9.4c0.5-6.3,1.1-12.5,1.7-18.8c0.6-6.3,1.3-12.5,2-18.8c0.7-6.2,1.5-12.5,2.3-18.7
			c0.8-6.2,1.6-12.5,2.5-18.7c0.5-3.1,0.9-6.2,1.4-9.3c0.5-3.1,1-6.2,1.5-9.3c0.5-3.1,1.1-6.2,1.7-9.3c0.6-3.1,1.3-6.2,2-9.2
			c0.7-3.1,1.6-6.1,2.7-9.1c0.6-1.5,1.2-3,2-4.4c0.4-0.7,0.9-1.4,1.5-2C479.2,381.2,480,380.6,481,380.5z M481,381.5
			c-0.6,0-1.2,0.4-1.7,0.9c-0.5,0.5-0.9,1.2-1.3,1.8c-0.7,1.3-1.3,2.8-1.8,4.2c-1,2.9-1.7,6-2.4,9c-1.3,6.1-2.2,12.3-3,18.5
			c-0.4,3.1-0.7,6.2-1.1,9.3c-0.3,3.1-0.6,6.2-0.8,9.4c-0.5,6.2-0.9,12.5-1.3,18.7c-0.3,6.3-0.6,12.5-0.9,18.8l-0.7,18.8l-0.6,18.8
			l-0.5,18.8l-3.9-4.8l21,3.2l20.9,3.4c7,1.1,14,2.3,20.9,3.5c7,1.2,13.9,2.4,20.9,3.6l20.9,3.7l20.9,3.8l41.8,7.6l-4.4,2
			c4-6.6,7.9-13.3,11.8-20c3.8-6.7,7.6-13.5,11.3-20.4c7.3-13.7,14.3-27.5,20.7-41.6c3.2-7.1,6.1-14.2,8.8-21.4
			c2.7-7.2,5.1-14.5,6.7-21.9c0.5-1.8,0.7-3.7,1.1-5.5c0.2-0.9,0.2-1.8,0.4-2.8l0.2-1.4l0.1-0.7l0-0.7l0.1-2.6
			c0-0.9-0.1-1.9-0.2-2.9L685,412l0-0.4c0,0,0-0.2,0,0.1l0-0.1l0-0.1c-0.1-0.3-0.2-0.7-0.2-1c-0.1-0.3-0.3-0.7-0.4-1
			c-0.1-0.3-0.4-0.7-0.5-1c-0.8-1.3-1.9-2.6-3.3-3.7c-1.3-1.1-2.8-2.1-4.4-3c-3.2-1.8-6.7-3.3-10.2-4.5c-3.6-1.3-7.3-2.3-11-3.3
			c-3.7-1-7.5-1.8-11.3-2.6c-7.6-1.5-15.2-2.7-22.9-3.8c-7.7-1.1-15.4-1.9-23.1-2.7c-7.7-0.8-15.5-1.4-23.3-1.9
			c-7.8-0.5-15.5-0.9-23.3-1.3c-7.8-0.3-15.6-0.5-23.3-0.7c-7.8-0.1-15.6-0.1-23.4-0.1C496.6,381.1,488.8,381.3,481,381.5L481,381.5
			z"/>
	</g>
	<g display="none">
		<path display="inline" d="M433.9,704.9c15.4-3.9,30.8-7.6,46.3-10.9c7.8-1.6,15.6-3.2,23.5-4.3c2-0.3,4-0.5,6-0.7
			c2-0.2,4-0.3,6.2-0.3c0.5,0,1.1,0.1,1.7,0.1c0.6,0.1,1.2,0.2,2,0.5l0.3,0.1l0.1,0.1l0.1,0l0.2,0.1l0.1,0.1c0,0,0,0,0.2,0.1
			c0.2,0.2,0.4,0.4,0.5,0.6c0.3,0.4,0.4,0.8,0.5,1.2c0.1,0.4,0,0.7,0,1c-0.3,1.1-0.7,1.6-1,2.1c-0.7,1-1.5,1.8-2.2,2.5
			c-0.8,0.7-1.5,1.4-2.3,2.1c-3.1,2.7-6.3,5.1-9.5,7.4c-3.2,2.3-6.5,4.6-9.8,6.8c-6.6,4.5-13.3,8.8-20,13.1
			c-6.7,4.3-13.4,8.5-20.2,12.6c-6.8,4.2-13.6,8.3-20.4,12.3l0,0l-1-7.2c8,2.1,16,4.2,23.9,6.4c7.9,2.2,15.9,4.6,23.7,7
			c7.9,2.5,15.7,5.1,23.5,8.1c3.9,1.5,7.7,3.1,11.5,5.1c1.9,1.1,3.8,2.1,5.7,4c0.2,0.3,0.5,0.5,0.7,0.9c0.2,0.3,0.5,0.7,0.6,1.2
			c0.2,0.4,0.3,1.1,0.3,1.7c-0.1,0.6-0.2,1.3-0.6,1.8c-0.3,0.6-0.6,0.8-1,1.1c-0.3,0.3-0.6,0.5-1,0.7c-0.6,0.3-1.2,0.6-1.8,0.8
			l-0.4,0.2l-0.2,0.1l-0.1,0l-0.2,0l-0.7,0.2c-0.5,0.1-1,0.3-1.5,0.4c-1.1,0.2-2.2,0.5-3.2,0.6c-2.1,0.4-4.2,0.6-6.3,0.8
			c-4.2,0.4-8.3,0.6-12.4,0.7c-8.3,0.2-16.5,0-24.8-0.4c-8.2-0.4-16.4-0.9-24.6-1.6c-8.2-0.7-16.4-1.5-24.6-2.4l0.1-1
			c8.2,0.6,16.4,1.1,24.6,1.5c8.2,0.4,16.4,0.7,24.6,0.7c8.2,0.1,16.4,0,24.5-0.4c4.1-0.2,8.1-0.6,12.1-1.1c2-0.3,4-0.6,5.9-1
			c1-0.2,1.9-0.4,2.8-0.6c0.5-0.1,1-0.3,1.5-0.4l0.7-0.2l0.2-0.1l0.1,0c0.1,0-0.1,0,0,0l0,0l0.3-0.1c0.4-0.1,0.7-0.3,1-0.5
			c0.1-0.1,0.2-0.2,0.3-0.2c0,0,0.1-0.1,0,0c0,0-0.1,0.2-0.1,0.3c-0.1,0.1,0,0.2,0,0.2c0,0,0,0,0,0c0,0-0.1-0.1-0.1-0.1
			c0-0.1-0.2-0.2-0.3-0.3c-1.1-1-2.8-2-4.6-2.9c-3.5-1.7-7.3-3.2-11.1-4.5c-7.7-2.7-15.5-5-23.4-7.2c-7.9-2.2-15.8-4.2-23.8-6.2
			c-8-1.9-16-3.8-23.9-5.6l-9.6-2.1l8.6-5.1l0,0c6.9-3.8,13.8-7.6,20.7-11.5c6.9-3.9,13.7-7.8,20.6-11.8c6.8-4,13.6-8.1,20.3-12.2
			c3.3-2.1,6.7-4.2,9.9-6.4c3.3-2.2,6.5-4.4,9.5-6.8c0.7-0.6,1.5-1.2,2.2-1.8c0.7-0.6,1.3-1.3,1.8-1.9c0.2-0.3,0.4-0.6,0.3-0.5
			c0,0.1,0,0.5,0.2,0.8c0.1,0.1,0.2,0.2,0.3,0.3c0.1,0.1,0,0,0,0l-0.1-0.1c0.1,0-0.2-0.1,0.1,0.1l0,0l0,0l0,0
			c-0.2-0.1-0.5-0.2-0.9-0.2c-0.4-0.1-0.8-0.1-1.3-0.2c-3.7-0.2-7.6,0.2-11.5,0.6c-7.8,0.9-15.6,2.1-23.4,3.5
			c-15.6,2.7-31.1,5.9-46.6,9.2L433.9,704.9z"/>
	</g>
	<g>
		<path d="M314.7,696.8c0,0,0.1,0,0.4-0.1c0.2-0.1,0.6-0.2,0.9-0.2c0.7-0.1,1.6-0.2,2.3,0.3c1.2,1.1,3,2.6,5.2,4.4
			c1.1,0.9,2.3,1.8,3.6,2.8c1.3,1,2.7,2,4.1,3c1.4,1,3,2,4.5,3c1.6,1,3.2,1.9,4.8,2.8c1.6,0.9,3.3,1.7,5,2.3c1.7,0.7,3.4,1.2,5,1.7
			c0.8,0.2,1.6,0.4,2.4,0.5c0.8,0.1,1.6,0.3,2.4,0.3c0.8,0,1.5,0.1,2.2,0c0.4,0,0.7,0,1.1-0.1c0.3-0.1,0.7-0.1,1-0.2
			c0.3-0.1,0.7-0.1,1-0.2c0.3-0.1,0.6-0.2,0.9-0.3c0.3-0.1,0.6-0.2,0.9-0.2c0.3-0.1,0.5-0.2,0.8-0.3c1-0.4,1.8-1,2.5-1.4
			c0.7-0.4,1.1-0.9,1.5-1.1c0.3-0.3,0.5-0.4,0.5-0.4l0.7,0.7c0,0-0.2,0.2-0.5,0.5c-0.3,0.3-0.7,0.9-1.4,1.5c-0.7,0.6-1.4,1.3-2.5,2
			c-0.3,0.2-0.5,0.3-0.8,0.5c-0.3,0.1-0.6,0.3-0.9,0.4c-0.3,0.1-0.7,0.3-1,0.5c-0.3,0.1-0.7,0.2-1.1,0.3c-0.4,0.1-0.8,0.2-1.1,0.3
			c-0.4,0.1-0.8,0.1-1.2,0.2c-0.8,0.2-1.7,0.2-2.6,0.3c-0.9,0.1-1.8,0-2.7,0c-0.9-0.1-1.9-0.2-2.8-0.3c-1.9-0.3-3.8-0.7-5.7-1.4
			c-1.9-0.6-3.7-1.4-5.6-2.2c-0.9-0.4-1.8-0.9-2.7-1.3c-0.9-0.5-1.7-0.9-2.6-1.4c-1.7-1-3.3-2-4.9-3c-3.1-2-5.8-4.1-8.1-5.9
			c-1.1-0.9-2.2-1.8-3.1-2.6c-0.9-0.8-1.7-1.5-2.3-2.1c-0.6-0.6-0.7-1.6-0.6-2.3c0-0.4,0.1-0.7,0.2-1
			C314.6,696.9,314.7,696.8,314.7,696.8z"/>
	</g>
</g>
<g id="Layer_4" display="none">
	
		<polyline display="inline" fill="none" stroke="#000000" stroke-width="160" stroke-linecap="round" stroke-linejoin="bevel" stroke-miterlimit="10" points="
		99.1,745.9 184.6,850.9 259.6,745.9 	"/>
</g>
<g id="Layer_3">
	<polyline stroke="#ED208A" stroke-width="160" stroke-linecap="round" stroke-miterlimit="10" points="847.5,423.3 862.1,500.8 
		935.1,487.3 	"/>
</g>
</svg>
